<?xml version="1.0" encoding="utf-8"?>
<!-- Generator: Adobe Illustrator 22.0.1, SVG Export Plug-In . SVG Version: 6.00 Build 0)  -->
<svg version="1.1" id="Ebene_1" xmlns="http://www.w3.org/2000/svg" xmlns:xlink="http://www.w3.org/1999/xlink" x="0px" y="0px"
	 viewBox="0 0 792 1224" style="enable-background:new 0 0 792 1224;" xml:space="preserve">
<style type="text/css">
	.st0{display:none;}
</style>
<path d="M261.9,554.6c0-4.4,3.6-8,8-8h9v-10h234.2v10h9c4.4,0,8,3.6,8,8c0,4.4-3.6,8-8,8v46h-10v-36c0-4.4-3.6-8-8-8
	c-4.4,0-8,3.6-8,8v36h-20v-36c0-4.4-3.6-8-8-8c-4.4,0-8,3.6-8,8v36h-20v-36c0-4.4-3.6-8-8-8s-8,3.6-8,8v36h-20v-36c0-4.4-3.6-8-8-8
	c-4.4,0-8,3.6-8,8v36h-20v-36c0-4.4-3.6-8-8-8s-8,3.6-8,8v36h-20v-36c0-4.4-3.6-8-8-8c-4.4,0-8,3.6-8,8v36h-20v-36c0-4.4-3.6-8-8-8
	c-4.4,0-8,3.6-8,8v36h-10v-46C265.5,562.6,261.9,559.1,261.9,554.6z M540.1,614.7H251.9c-4.4,0-8,3.6-8,8c0,4.4,3.6,8,8,8v72.5h8
	v-62.5c0-5.5,4.5-10,10-10c5.5,0,10,4.5,10,10v62.5h16v-62.5c0-5.5,4.5-10,10-10c5.5,0,10,4.5,10,10v62.5h16v-62.5
	c0-5.5,4.5-10,10-10c5.5,0,10,4.5,10,10v62.5h16v-62.5c0-5.5,4.5-10,10-10c5.5,0,10,4.5,10,10v62.5h16v-62.5c0-5.5,4.5-10,10-10
	c5.5,0,10,4.5,10,10v62.5h16v-62.5c0-5.5,4.5-10,10-10c5.5,0,10,4.5,10,10v62.5h16v-62.5c0-5.5,4.5-10,10-10c5.5,0,10,4.5,10,10
	v62.5h16v-62.5c0-5.5,4.5-10,10-10c5.5,0,10,4.5,10,10v62.5h8v-72.5c4.4,0,8-3.6,8-8C548.1,618.3,544.6,614.7,540.1,614.7z
	 M287.9,519.4c0-5.7,4.6-10.3,10.3-10.3h0.7c4.4-36.8,28.3-67.4,60.9-80.6c-10.1,9.6-34.8,37.4-34.8,80.8c0,1.2,0.9,2.1,2.1,2.1
	c1.2,0,2.1-0.9,2.1-2.1c0-52.1,37-80.9,37.4-81.2c0.9-0.7,1.1-2,0.4-3c-0.5-0.7-1.4-0.8-2.1-0.6v-13.6H377c0-1.9,1.5-3.5,3.5-3.5
	v-39.7c-1.9,0-3.5-1.5-3.5-3.4c0-1.9,1.5-3.5,3.5-3.5h7.7v-43.1h4.3v-15.5c0-1.9,1.6-3.4,3.5-3.4s3.5,1.5,3.5,3.4v15.5h4.3v43.1h7.7
	c1.9,0,3.5,1.5,3.5,3.5c0,1.9-1.5,3.4-3.5,3.4v39.7c1.9,0,3.5,1.5,3.5,3.5H427v15.5h-0.5c35.4,11.9,61.8,43.9,66.5,82.7h0.7
	c5.7,0,10.4,4.6,10.4,10.3s-4.7,10.3-10.4,10.3H298.2C292.5,529.8,287.9,525.1,287.9,519.4z M392.8,400.8c0,1.7,1.4,3.2,3.2,3.2
	c1.8,0,3.2-1.4,3.2-3.2v-21.1c0-1.7-1.4-3.2-3.2-3.2c-1.7,0-3.2,1.4-3.2,3.2V400.8z M375.8,509.2c0,1.2,0.9,2.1,2.1,2.1
	s2.1-0.9,2.1-2.1c0-53.1,4.4-82.3,4.4-82.6c0.2-1.1-0.6-2.2-1.8-2.4c-1.3-0.2-2.2,0.6-2.4,1.8C380.2,426.3,375.8,455.8,375.8,509.2z
	 M350.4,509.2c0,1.2,0.9,2.1,2.1,2.1c1.2,0,2.1-0.9,2.1-2.1c0-52.5,20.7-81.4,20.9-81.6c0.7-0.9,0.5-2.3-0.5-3
	c-0.9-0.7-2.3-0.5-2.9,0.5C371.3,426.3,350.4,455.3,350.4,509.2z"/>
<circle class="st0" cx="396" cy="492.7" r="199.1"/>
</svg>
