<?xml version="1.0" encoding="utf-8"?>
<!-- Generator: Adobe Illustrator 15.0.0, SVG Export Plug-In . SVG Version: 6.00 Build 0)  -->
<!DOCTYPE svg PUBLIC "-//W3C//DTD SVG 1.1//EN" "http://www.w3.org/Graphics/SVG/1.1/DTD/svg11.dtd">
<svg version="1.1" id="Ebene_1" xmlns="http://www.w3.org/2000/svg" xmlns:xlink="http://www.w3.org/1999/xlink" x="0px" y="0px"
	 width="792px" height="1224px" viewBox="0 0 792 1224" enable-background="new 0 0 792 1224" xml:space="preserve">
<path fill="#C7A23A" d="M396,255.6c-131.274,0-237.6,106.326-237.6,237.6c0,18.176,2.02,35.877,5.821,52.747
	c0.594,2.376,1.188,4.752,1.782,7.009c1.188,4.396,2.376,8.673,3.801,12.949c1.663,5.108,3.445,10.099,5.346,15.088
	c1.782,4.396,3.801,8.91,5.821,13.187c0.119,0.476,0.356,0.832,0.594,1.307c1.901,3.921,3.802,7.841,5.94,11.643l5.346,9.267
	L396,968.4l203.148-352.005l5.346-9.267c2.139-3.801,4.039-7.722,5.939-11.643c0.238-0.475,0.476-0.831,0.595-1.307
	c2.02-4.276,4.039-8.791,5.821-13.187c1.9-4.989,3.683-9.979,5.346-15.088c1.426-4.276,2.613-8.554,3.802-12.949
	c0.594-2.257,1.188-4.633,1.663-7.009c3.92-16.87,5.939-34.571,5.939-52.747C633.6,361.926,527.274,255.6,396,255.6z M396,691.2
	c-109.352,0-198-88.648-198-198s88.648-198,198-198s198,88.648,198,198S505.352,691.2,396,691.2z"/>
<g>
	<g>
		<path d="M361.776,601.1c-36.492-22.261-61.817-70.69-61.817-125.749c0-8.023,0.537-15.88,1.567-23.528l213.983,2.73
			c0.799,6.79,1.216,13.729,1.216,20.797c0,55.806-25.896,103.891-63.191,125.753h63.191l-8.312,9.317H308.274l-7.403-9.524
			L361.776,601.1z"/>
		<path d="M508.409,616.708H308.274c-1.938,0-3.773-0.898-4.965-2.431l-7.403-9.524c-1.477-1.9-1.739-4.477-0.678-6.635
			c1.057-2.152,3.247-3.516,5.647-3.516c0.007,0,0.014,0,0.021,0l41.826,0.141c-30.27-26.889-49.049-71.606-49.049-119.396
			c0-8.178,0.547-16.38,1.622-24.369c0.427-3.151,3.133-5.496,6.312-5.451l213.98,2.73c3.158,0.042,5.799,2.414,6.17,5.551
			c0.834,7.076,1.257,14.317,1.257,21.534c0,48.093-19.141,92.811-49.992,119.458h43.698c2.479,0,4.728,1.457,5.744,3.723
			c1.012,2.259,0.603,4.906-1.051,6.755l-8.315,9.318C511.907,615.947,510.2,616.708,508.409,616.708z M367.289,604.13h80.729
			c-0.238-0.431-0.424-0.892-0.559-1.378c-0.747-2.744,0.441-5.64,2.89-7.079c36.502-21.393,60.082-68.624,60.082-120.322
			c0-4.869-0.207-9.751-0.62-14.575l-202.707-2.59c-0.572,5.668-0.861,11.421-0.861,17.165c0,51.336,23.084,98.592,58.804,120.381
			c2.411,1.471,3.547,4.366,2.779,7.083C367.699,603.279,367.517,603.717,367.289,604.13z"/>
	</g>
</g>
<g>
	<g>
		<path d="M436.641,362.934c-8.478-12.038-23.087-17.582-29.589-32.433c-3.453-6.597-2.978-14.076-0.87-22.998
			c-0.324,0.072-1.439,1.467-1.767,1.553c-13.195,15.133-21.194,30.284-10.877,45.758c5.887,11.762,23.524,20.587,26.472,29.409
			c2.151,5.747,2.196,11.497,0.788,17.116c-0.375,2.745-1.219,5.396-2.383,7.73c-4.793,9.579-11.5,17.209-16.279,25.731
			c4.676-6.394,11.655-9.972,17.543-13.463C437.498,411.588,450.879,385.928,436.641,362.934z"/>
		<path d="M402.136,435.191c-0.072,0-0.145-0.017-0.214-0.062c-0.176-0.114-0.231-0.341-0.131-0.523
			c2.104-3.753,4.524-7.255,7.097-10.967c3.195-4.618,6.501-9.397,9.177-14.751c1.174-2.355,1.983-4.986,2.345-7.606
			c1.484-5.929,1.223-11.607-0.768-16.923c-1.422-4.256-6.449-8.612-11.773-13.226c-5.732-4.966-11.662-10.103-14.682-16.143
			c-11.204-16.8-0.764-32.784,10.932-46.191c0.053-0.062,0.121-0.104,0.197-0.124c0.09-0.052,0.454-0.424,0.695-0.668
			c0.575-0.585,0.833-0.83,1.081-0.889c0.138-0.034,0.269,0.01,0.365,0.104c0.097,0.096,0.138,0.237,0.103,0.368
			c-2.41,10.199-2.162,16.996,0.834,22.726c3.75,8.564,10.303,14.087,16.641,19.431c4.587,3.87,9.339,7.868,12.92,12.961
			c5.912,9.541,7.534,20.226,4.718,30.914c-3.065,11.624-11.422,22.377-21.813,28.062c-0.672,0.399-1.374,0.809-2.087,1.222
			c-5.265,3.068-11.242,6.542-15.323,12.127C402.38,435.136,402.259,435.191,402.136,435.191z M404.652,309.384
			c-11.473,13.174-21.7,28.838-10.784,45.214c2.972,5.943,8.839,11.025,14.514,15.942c5.409,4.683,10.52,9.111,12,13.56
			c2.041,5.454,2.313,11.291,0.795,17.333c-0.357,2.665-1.201,5.382-2.41,7.812c-2.703,5.406-6.025,10.206-9.234,14.848
			c-1.65,2.383-3.24,4.683-4.721,7.014c3.805-3.777,8.4-6.457,12.567-8.88c0.709-0.413,1.411-0.819,2.093-1.226
			c10.217-5.592,18.43-16.156,21.442-27.581c2.765-10.475,1.167-20.945-4.614-30.28c-3.516-4.989-8.219-8.956-12.771-12.792
			c-6.404-5.399-13.029-10.984-16.841-19.688c-3.667-7.007-2.751-14.996-1.167-22.051
			C405.101,309.046,404.855,309.277,404.652,309.384z"/>
	</g>
</g>
<g>
	<g>
		<path d="M302.7,559.787C302.697,559.787,302.697,559.787,302.7,559.787c-12.837,0-22.188-1.395-28.593-4.263
			c-30.001-13.449-35.855-33.062-35.58-60.357c0.41-40.552,35.642-40.552,48.905-40.552c1.291,0,17.571,0.424,19.919,0.658
			c6.329,0.64,11.188,5.895,11.322,12.254c0.592,27.85,6.301,52.276,16.958,72.599c1.935,3.688,1.918,8.099-0.045,11.772
			s-5.62,6.136-9.762,6.58C317.785,559.336,309.79,559.787,302.7,559.787z M287.419,479.775c-23.573,0-23.635,5.892-23.731,15.649
			c-0.227,22.289,3.836,29.578,20.701,37.14c0.764,0.345,5.268,2.062,18.304,2.062h0.004c0.954,0,1.932-0.007,2.923-0.027
			c-6.284-16.559-10.155-34.847-11.56-54.656C290.907,479.848,288.118,479.779,287.419,479.775z"/>
	</g>
</g>
<g>
	<g>
		<path d="M401.186,384.74c-4.291-6.094-11.69-8.9-14.979-16.417c-1.746-3.343-1.501-7.124-0.441-11.638
			c-0.162,0.034-0.723,0.74-0.895,0.785c-6.67,7.658-10.726,15.326-5.502,23.163c2.982,5.95,11.91,10.416,13.398,14.882
			c1.091,2.91,1.115,5.819,0.396,8.667c-0.19,1.391-0.613,2.73-1.199,3.915c-2.435,4.848-5.829,8.708-8.243,13.019
			c2.366-3.237,5.898-5.048,8.876-6.814C401.619,409.367,408.392,396.379,401.186,384.74z"/>
		<path d="M383.721,421.508c-0.072,0-0.145-0.021-0.213-0.062c-0.175-0.113-0.234-0.341-0.131-0.523
			c1.071-1.915,2.304-3.695,3.608-5.585c1.611-2.328,3.271-4.731,4.625-7.42c0.582-1.171,0.985-2.482,1.16-3.794
			c0.754-2.978,0.623-5.816-0.375-8.47c-0.703-2.114-3.23-4.304-5.905-6.622c-2.913-2.524-5.926-5.137-7.472-8.223
			c-5.761-8.636-0.058-17.147,5.557-23.597c0.052-0.059,0.121-0.104,0.2-0.124c-0.007-0.01,0.163-0.183,0.262-0.286
			c0.303-0.31,0.454-0.461,0.647-0.499c0.131-0.028,0.269,0.01,0.362,0.11c0.093,0.093,0.134,0.23,0.104,0.361
			c-1.219,5.189-1.099,8.484,0.406,11.366c1.883,4.304,5.189,7.086,8.377,9.776c2.335,1.966,4.749,4.001,6.577,6.601
			c3.027,4.882,3.854,10.344,2.414,15.808c-1.566,5.933-5.837,11.421-11.14,14.324c-0.334,0.2-0.688,0.406-1.046,0.617
			c-2.651,1.542-5.658,3.292-7.696,6.084C383.965,421.453,383.841,421.508,383.721,421.508z M385.115,357.79
			c-5.747,6.607-10.863,14.461-5.423,22.622c1.505,2.989,4.456,5.547,7.313,8.023c2.758,2.39,5.369,4.652,6.129,6.952
			c1.057,2.799,1.191,5.792,0.41,8.887c-0.182,1.35-0.613,2.744-1.229,3.994c-1.374,2.741-3.054,5.168-4.679,7.517
			c-0.537,0.775-1.064,1.536-1.567,2.293c1.68-1.408,3.546-2.496,5.271-3.498c0.358-0.207,0.709-0.414,1.057-0.616
			c5.131-2.807,9.256-8.109,10.768-13.842c1.381-5.251,0.585-10.499-2.314-15.174c-1.755-2.497-4.024-4.404-6.421-6.429
			c-3.26-2.748-6.632-5.592-8.581-10.037C384.072,365.096,384.399,361.25,385.115,357.79
			C385.119,357.786,385.115,357.786,385.115,357.79z"/>
	</g>
</g>
<circle display="none" cx="396" cy="492.728" r="199.127"/>
</svg>
