<?xml version="1.0" encoding="utf-8"?>
<!-- Generator: Adobe Illustrator 15.0.0, SVG Export Plug-In . SVG Version: 6.00 Build 0)  -->
<!DOCTYPE svg PUBLIC "-//W3C//DTD SVG 1.1//EN" "http://www.w3.org/Graphics/SVG/1.1/DTD/svg11.dtd">
<svg version="1.1" id="Ebene_1" xmlns="http://www.w3.org/2000/svg" xmlns:xlink="http://www.w3.org/1999/xlink" x="0px" y="0px"
	 width="792px" height="1224px" viewBox="0 0 792 1224" enable-background="new 0 0 792 1224" xml:space="preserve">
<path fill="#C7A23A" d="M396,255.6c-131.274,0-237.6,106.326-237.6,237.6c0,18.176,2.02,35.877,5.821,52.747
	c0.594,2.376,1.188,4.752,1.782,7.009c1.188,4.396,2.376,8.673,3.801,12.949c1.663,5.108,3.445,10.099,5.346,15.088
	c1.782,4.396,3.801,8.91,5.821,13.187c0.119,0.476,0.356,0.832,0.594,1.307c1.901,3.921,3.802,7.841,5.94,11.643l5.346,9.267
	L396,968.4l203.148-352.005l5.346-9.267c2.139-3.801,4.039-7.722,5.939-11.643c0.238-0.475,0.476-0.831,0.595-1.307
	c2.02-4.276,4.039-8.791,5.821-13.187c1.9-4.989,3.683-9.979,5.346-15.088c1.426-4.276,2.613-8.554,3.802-12.949
	c0.594-2.257,1.188-4.633,1.663-7.009c3.92-16.87,5.939-34.571,5.939-52.747C633.6,361.926,527.274,255.6,396,255.6z M396,691.2
	c-109.352,0-198-88.648-198-198s88.648-198,198-198s198,88.648,198,198S505.352,691.2,396,691.2z"/>
<g>
	<path d="M437.75,601.669c-2.383,0-4.336-2.785-4.336-6.216v-145.52h-90.888v18.678h16.449c2.382,0,4.296,1.949,4.296,4.336v124.39
		c0,2.388-1.935,4.336-4.296,4.336h-16.449v19.304h112.947v-19.304H437.75V601.669z"/>
	<path d="M398.355,359.36c21.518,0,38.99,17.453,38.99,38.991s-17.473,38.996-38.99,38.996c-21.558,0-39.016-17.458-39.016-38.996
		S376.798,359.36,398.355,359.36z"/>
</g>
<circle display="none" cx="396" cy="492.728" r="199.127"/>
</svg>
