<?xml version="1.0" encoding="utf-8"?>
<!-- Generator: Adobe Illustrator 15.0.0, SVG Export Plug-In . SVG Version: 6.00 Build 0)  -->
<!DOCTYPE svg PUBLIC "-//W3C//DTD SVG 1.1//EN" "http://www.w3.org/Graphics/SVG/1.1/DTD/svg11.dtd">
<svg version="1.1" id="Ebene_1" xmlns="http://www.w3.org/2000/svg" xmlns:xlink="http://www.w3.org/1999/xlink" x="0px" y="0px"
	 width="792px" height="1224px" viewBox="0 0 792 1224" enable-background="new 0 0 792 1224" xml:space="preserve">
<g sketch:type="MSPage">
	<path sketch:type="MSShapeGroup" d="M404.793,590.281c-4.464-33.782-8.533-71.816-10.751-110.132l0,0
		c34.077,23.729,66.644-41.229,48.431-77.306c-18.589-36.825-44.002-94.19-44.002-94.19s-64.844,63.499-64.844,104.772
		c0,39.706,21.722,89.231,54.378,67.985c1.53,38.538,5.297,77.972,9.558,113.01l0,0c-7.62-2.596-22.193-9.063-42.933-24.783
		c40.694-7.44,17.797-76.267-20.55-88.885c-39.184-12.894-97.717-35.488-97.717-35.488s-0.951,90.751,28.234,119.936
		c27.907,27.907,77.848,47.499,86.373,10.308c27.048,20.65,46.124,27.183,46.124,27.183l0.947-0.946
		c-0.848,1.635-1.237,2.514-1.237,2.514l2.339,2.787c7.626,59.339,16.116,103.216,16.116,103.216h9.341
		c0,0-9.477-45.252-18.166-107.868c3.891-7.867,11.707-20.666,27-37.557c3.866,41.188,74.425,24.377,90.339-12.725
		c16.26-37.911,43.868-94.252,43.868-94.252s-90.323-8.857-121.94,17.674c-30.232,25.368-54.104,73.412-17.795,85.145
		C417.216,572.401,409.734,582.663,404.793,590.281z"/>
</g>
<path fill="#C7A23A" d="M396,255.6c-131.274,0-237.6,106.326-237.6,237.6c0,18.176,2.02,35.877,5.821,52.747
	c0.594,2.376,1.188,4.752,1.782,7.009c1.188,4.396,2.376,8.673,3.801,12.949c1.663,5.108,3.445,10.099,5.346,15.088
	c1.782,4.396,3.801,8.91,5.821,13.187c0.119,0.476,0.356,0.832,0.594,1.307c1.901,3.921,3.802,7.841,5.94,11.643l5.346,9.267
	L396,968.4l203.148-352.005l5.346-9.267c2.139-3.801,4.039-7.722,5.939-11.643c0.238-0.475,0.476-0.831,0.595-1.307
	c2.02-4.276,4.039-8.791,5.821-13.187c1.9-4.989,3.683-9.979,5.346-15.088c1.426-4.276,2.613-8.554,3.802-12.949
	c0.594-2.257,1.188-4.633,1.663-7.009c3.92-16.87,5.939-34.571,5.939-52.747C633.6,361.926,527.274,255.6,396,255.6z M396,691.2
	c-109.352,0-198-88.648-198-198s88.648-198,198-198s198,88.648,198,198S505.352,691.2,396,691.2z"/>
<circle display="none" cx="396" cy="492.728" r="199.127"/>
</svg>
