<?xml version="1.0" encoding="utf-8"?>
<!-- Generator: Adobe Illustrator 15.0.0, SVG Export Plug-In . SVG Version: 6.00 Build 0)  -->
<!DOCTYPE svg PUBLIC "-//W3C//DTD SVG 1.1//EN" "http://www.w3.org/Graphics/SVG/1.1/DTD/svg11.dtd">
<svg version="1.1" id="Ebene_1" xmlns="http://www.w3.org/2000/svg" xmlns:xlink="http://www.w3.org/1999/xlink" x="0px" y="0px"
	 width="792px" height="1224px" viewBox="0 0 792 1224" enable-background="new 0 0 792 1224" xml:space="preserve">
<path fill="#C7A23A" d="M396,255.6c-131.274,0-237.6,106.326-237.6,237.6c0,18.176,2.02,35.877,5.821,52.747
	c0.594,2.376,1.188,4.752,1.782,7.009c1.188,4.396,2.376,8.673,3.801,12.949c1.663,5.108,3.445,10.099,5.346,15.088
	c1.782,4.396,3.801,8.91,5.821,13.187c0.119,0.476,0.356,0.832,0.594,1.307c1.901,3.921,3.802,7.841,5.94,11.643l5.346,9.267
	L396,968.4l203.148-352.005l5.346-9.267c2.139-3.801,4.039-7.722,5.939-11.643c0.238-0.475,0.476-0.831,0.595-1.307
	c2.02-4.276,4.039-8.791,5.821-13.187c1.9-4.989,3.683-9.979,5.346-15.088c1.426-4.276,2.613-8.554,3.802-12.949
	c0.594-2.257,1.188-4.633,1.663-7.009c3.92-16.87,5.939-34.571,5.939-52.747C633.6,361.926,527.274,255.6,396,255.6z M396,691.2
	c-109.352,0-198-88.648-198-198s88.648-198,198-198s198,88.648,198,198S505.352,691.2,396,691.2z"/>
<g>
	<path d="M315.056,340c-19.906,0-36.034,26.891-36.034,60.057c0,26.137,10.036,48.313,24.022,56.568v171.648
		c0,6.606,5.406,12.012,12.012,12.012s12.012-5.405,12.012-12.012V456.625c13.986-8.254,24.022-30.431,24.022-56.568
		C351.09,366.891,334.961,340,315.056,340z"/>
	<path d="M424.66,340c-2.479,0-4.505,2.027-4.505,4.505v66.062c0,2.478-1.351,4.504-3.004,4.504c-1.651,0-3.002-2.027-3.002-4.504
		v-66.062c0-2.478-2.026-4.505-4.505-4.505c-2.478,0-4.504,2.027-4.504,4.505v66.062c0,2.478-1.351,4.504-3.003,4.504
		c-1.651,0-3.003-2.027-3.003-4.504v-66.062c0-2.478-2.027-4.505-4.504-4.505c-2.478,0-4.504,2.027-4.504,4.505v66.062
		c0,2.478-1.352,4.504-3.003,4.504c-1.652,0-3.002-2.027-3.002-4.504v-66.062c0-2.478-2.027-4.505-4.504-4.505
		c-2.478,0-4.505,2.027-4.505,4.505c0,0,0,50.811,0,64.561c0,25.338,4.18,41.718,15.015,48.058v171.149
		c0,6.606,5.406,12.012,12.011,12.012c6.606,0,12.012-5.405,12.012-12.012V457.124c10.833-6.34,15.014-22.72,15.014-48.058
		c0-19.303,0-64.561,0-64.561C429.163,342.027,427.137,340,424.66,340z"/>
	<path d="M489.222,340c-19.906,0-36.035,32.269-36.035,72.068c0,31.377,10.026,58.057,24.022,67.952v148.252
		c0,6.606,5.405,12.012,12.013,12.012c6.605,0,12.011-5.405,12.011-12.012V352.012C501.232,345.405,495.827,340,489.222,340z"/>
</g>
</svg>
