<?xml version="1.0" encoding="utf-8"?>
<!-- Generator: Adobe Illustrator 22.0.1, SVG Export Plug-In . SVG Version: 6.00 Build 0)  -->
<svg version="1.1" id="Layer_1" xmlns="http://www.w3.org/2000/svg" xmlns:xlink="http://www.w3.org/1999/xlink" x="0px" y="0px"
	 viewBox="0 0 20 20" style="enable-background:new 0 0 20 20;" xml:space="preserve">
<g>
	<polygon points="4,14.1 5.5,12.7 3.8,11.1 12,11.1 12,9.1 3.8,9.1 5.5,7.5 4,6.1 0,10.1 	"/>
	<path d="M15.9,5.2c1.4,1.3,2.1,3,2.1,4.9s-0.7,3.6-2.1,4.9c-2.7,2.7-7.2,2.7-9.9,0l-1.4,1.4c3.5,3.5,9.2,3.5,12.7,0
		c1.8-1.6,2.7-3.9,2.7-6.3s-0.9-4.7-2.6-6.4C15.6,2,13.3,1.1,11,1.1S6.4,2,4.6,3.7L6,5.2C8.8,2.4,13.2,2.4,15.9,5.2z"/>
</g>
</svg>
