<?xml version="1.0" encoding="utf-8"?>
<!-- Generator: Adobe Illustrator 22.0.1, SVG Export Plug-In . SVG Version: 6.00 Build 0)  -->
<svg version="1.1" id="Ebene_1" xmlns="http://www.w3.org/2000/svg" xmlns:xlink="http://www.w3.org/1999/xlink" x="0px" y="0px"
	 viewBox="0 0 792 1224" style="enable-background:new 0 0 792 1224;" xml:space="preserve">
<style type="text/css">
	.st0{fill:#FFFFFF;}
	.st1{display:none;}
</style>
<path class="st0" d="M396,255.6c-131.3,0-237.6,106.3-237.6,237.6c0,18.2,2,35.9,5.8,52.7c0.6,2.4,1.2,4.8,1.8,7
	c1.2,4.4,2.4,8.7,3.8,12.9c1.7,5.1,3.4,10.1,5.3,15.1c1.8,4.4,3.8,8.9,5.8,13.2c0.1,0.5,0.4,0.8,0.6,1.3c1.9,3.9,3.8,7.8,5.9,11.6
	l5.3,9.3l203.1,352l203.1-352l5.3-9.3c2.1-3.8,4-7.7,5.9-11.6c0.2-0.5,0.5-0.8,0.6-1.3c2-4.3,4-8.8,5.8-13.2c1.9-5,3.7-10,5.3-15.1
	c1.4-4.3,2.6-8.6,3.8-12.9c0.6-2.3,1.2-4.6,1.7-7c3.9-16.9,5.9-34.6,5.9-52.7C633.6,361.9,527.3,255.6,396,255.6z M396,691.2
	c-109.4,0-198-88.6-198-198s88.6-198,198-198s198,88.6,198,198S505.4,691.2,396,691.2z"/>
<circle class="st1" cx="396" cy="492.7" r="199.1"/>
</svg>
