<svg xmlns="http://www.w3.org/2000/svg" xmlns:xlink="http://www.w3.org/1999/xlink" version="1.1" x="0px" y="0px" viewBox="0 0 100 100" style="enable-background:new 0 0 100 100;" xml:space="preserve"><path d="M93,39.6H76.7v-7.2c0-1-0.8-1.8-1.8-1.8h-33l-6.7-10.1c-0.3-0.5-0.9-0.8-1.5-0.8H14.2c-0.6,0-1.2,0.3-1.5,0.8L5.5,31.3  c-0.2,0.3-0.3,0.6-0.3,1v46.2c0,0,0,0,0,0.1c0,0,0,0.1,0,0.1c0,0.1,0,0.2,0.1,0.3c0,0,0,0.1,0,0.1c0,0.1,0.1,0.2,0.1,0.3  c0,0,0,0,0,0.1c0,0,0,0,0,0c0.1,0.1,0.2,0.2,0.3,0.3c0,0,0,0,0.1,0.1C5.9,80,5.9,80,6,80.1c0,0,0.1,0,0.1,0.1c0.1,0,0.2,0.1,0.3,0.1  c0,0,0.1,0,0.1,0c0.1,0,0.3,0.1,0.4,0.1h68c0.2,0,0.3,0,0.5-0.1c0,0,0.1,0,0.1,0c0.1,0,0.2-0.1,0.3-0.2c0,0,0.1,0,0.1,0  c0.1-0.1,0.2-0.2,0.3-0.3c0,0,0-0.1,0.1-0.1c0.1-0.1,0.2-0.2,0.2-0.3c0,0,0,0,0-0.1l18.1-37.2c0.3-0.6,0.2-1.2-0.1-1.8  C94.2,39.9,93.7,39.6,93,39.6z M32.7,23.3l6.7,10.1c0.3,0.5,0.9,0.8,1.5,0.8h32.2v5.4h-48c-0.7,0-1.3,0.4-1.6,1L8.8,70.7V32.9  l6.4-9.6H32.7z M73.8,76.7h-0.7H9.9l16.3-33.6h63.9L73.8,76.7z"></path></svg>