<svg xmlns="http://www.w3.org/2000/svg" xmlns:xlink="http://www.w3.org/1999/xlink" version="1.1" x="0px" y="0px" viewBox="0 0 100 100" style="enable-background:new 0 0 100 100;" xml:space="preserve"><path d="M80,58.9c0-3.4-1.9-6-5.2-6c-1,0-2,0.3-2.8,0.7c-1-2.6-2.4-4.4-5.3-4.4c-1.4,0-2.7,0.4-3.8,1.1c-1.2-1.6-3.2-2.6-5.4-2.6  c-1.7,0-3.3,0.7-4.5,1.7V29c0-2.6-2.1-4.7-4.7-4.7c-2.6,0-4.7,2.1-4.7,4.7c0,0-0.8,27.8-0.9,29.9c-0.2,1-1.1,2.2-2,1.8  c-3.8-1.6-9.1-8.4-11.4-10.2c-2.7-2.2-12.4-0.5-9.1,2.8c2.8,2.8,9.3,8.7,11.7,15.1c1.7,4.5,8.9,10.8,10.1,12.9c1.1,2.1,3,9.5,3,12.3  c4.5,0,30.6,0,30.6,0C76.5,90.3,80,81.9,80,58.9z"></path><path d="M60.5,28c0-6.8-5.5-12.4-12.4-12.4S35.7,21.2,35.7,28c0,4.9,2.9,9.2,7,11.1l0.2-4.8c-1.8-1.5-3-3.8-3-6.3  c0-4.5,3.7-8.2,8.2-8.2s8.2,3.7,8.2,8.2c0,2.4-1,4.5-2.6,6v5C57.7,37,60.5,32.8,60.5,28z"></path><path d="M67.6,28c0-10.8-8.8-19.5-19.5-19.5S28.5,17.2,28.5,28c0,8.9,5.9,16.3,14,18.7l0.1-4.6C37,39.9,33,34.4,33,28  c0-8.4,6.8-15.1,15.1-15.1c8.4,0,15.1,6.8,15.1,15.1c0,6.4-4,11.8-9.6,14.1v4.7C61.7,44.4,67.6,36.9,67.6,28z"></path></svg>