<?xml version="1.0" encoding="utf-8"?>
<!-- Generator: Adobe Illustrator 22.0.1, SVG Export Plug-In . SVG Version: 6.00 Build 0)  -->
<svg version="1.1"
	 id="Layer_1" xmlns:cc="http://creativecommons.org/ns#" xmlns:dc="http://purl.org/dc/elements/1.1/" xmlns:inkscape="http://www.inkscape.org/namespaces/inkscape" xmlns:rdf="http://www.w3.org/1999/02/22-rdf-syntax-ns#" xmlns:sodipodi="http://sodipodi.sourceforge.net/DTD/sodipodi-0.dtd" xmlns:svg="http://www.w3.org/2000/svg"
	 xmlns="http://www.w3.org/2000/svg" xmlns:xlink="http://www.w3.org/1999/xlink" x="0px" y="0px" viewBox="0 0 958.5 630"
	 style="enable-background:new 0 0 958.5 630;" xml:space="preserve">
<path d="M369.9,0c-12.3,0-23.4,7.2-28.4,18.3L246,228.2c-13.8-3-28.2-4.6-42.9-4.6C91.1,223.6,0,314.8,0,426.8S91.1,630,203.2,630
	s203.2-91.1,203.2-203.2c0-75.2-41-140.9-101.9-176.1l25.4-56L451.2,446c5.2,10.8,16.1,17.7,28.1,17.7h76.3
	C572.9,558.1,655.9,630,755.4,630c112,0,203.2-91.1,203.2-203.2s-91.1-203.2-203.2-203.2c-23.1,0-45.2,3.9-65.9,11l-56.9-118
	c-5.3-10.8-16.2-17.7-28.1-17.7H373.4L390,62.5h52.9c17.3,0,31.3-14,31.3-31.3S460.1,0,442.8,0H369.9z M565.2,0
	C548,0,534,14,534,31.3s14,31.3,31.3,31.3h88.6c17.3,0,31.3-14,31.3-31.3S671.1,0,653.8,0H565.2z M383.2,161.5h169.5L475,351.6
	L383.2,161.5L383.2,161.5z M603.9,201.4l30.2,62.5c-43.2,32.2-73.2,81.2-80.3,137.3h-31.5L603.9,201.4z M203.2,286.1
	c5.4,0,10.8,0.3,16.1,0.9l-60.2,132.4c-7.2,15.7-0.3,34.2,15.5,41.4c4.2,1.9,8.6,2.8,12.9,2.8c11.9,0,23.3-6.8,28.5-18.3L278.4,308
	c39.3,25,65.4,68.9,65.4,118.8c0,77.5-63.1,140.7-140.7,140.7c-77.6,0-140.7-63.1-140.7-140.7C62.5,349.2,125.6,286.1,203.2,286.1
	L203.2,286.1z M755.4,286.1c77.5,0,140.7,63.1,140.7,140.7c0,77.5-63.1,140.7-140.7,140.7c-64.8,0-119.5-44.1-135.8-103.8h130.6
	c10.8,0,20.8-5.5,26.4-14.7c5.8-9.1,6.3-20.5,1.7-30.2l-61.4-127.3C729.1,288,742,286.1,755.4,286.1L755.4,286.1z M662,321.7
	l38.3,79.4h-83.3C622.9,369.8,639.1,342,662,321.7z"/>
</svg>
