<?xml version="1.0" encoding="utf-8"?>
<!-- Generator: Adobe Illustrator 22.0.1, SVG Export Plug-In . SVG Version: 6.00 Build 0)  -->
<svg version="1.1" id="Layer_1" xmlns="http://www.w3.org/2000/svg" xmlns:xlink="http://www.w3.org/1999/xlink" x="0px" y="0px"
	 viewBox="0 0 100 100" style="enable-background:new 0 0 100 100;" xml:space="preserve">
<path d="M81.6,67.6c0,10-10,10-10,10h-7.2c-0.7,5.6-5.5,10-11.3,10H37.4c-6.3,0-11.4-5.1-11.4-11.4l-7.1-31.3c0-2.8,2.8-2.8,2.8-2.8
	h47c0,0,2.8,0,2.8,2.8l-0.9,4.3H73c0,0,10,0,10,10L81.6,67.6z M73.1,54.8h-3.6l-3.8,17.1h6c2.4,0,4.3-1.9,4.3-4.3l1.4-8.5
	C77.3,56.7,75.4,54.8,73.1,54.8z M57.6,32.4c-4,2.9-0.6,5.3-0.6,5.3c-4,0-5.2-5.3-2.3-6.4c2.9-1.2,1.7-3.5,1.7-3.5
	C61,30.1,57.6,32.4,57.6,32.4z M51,27.9c-7,5.4-1,9.8-1,9.8c-7,0-9-9.8-4-12s3-6.5,3-6.5C57,23.5,51,27.9,51,27.9z M41.5,24.9
	c-10,7.1-1.4,12.8-1.4,12.8c-10,0-12.9-12.8-5.7-15.7c7.2-2.8,4.3-8.5,4.3-8.5C50.1,19.2,41.5,24.9,41.5,24.9z"/>
</svg>
