<?xml version="1.0" encoding="utf-8"?>
<!-- Generator: Adobe Illustrator 22.0.1, SVG Export Plug-In . SVG Version: 6.00 Build 0)  -->
<svg version="1.1" id="Layer_1" xmlns="http://www.w3.org/2000/svg" xmlns:xlink="http://www.w3.org/1999/xlink" x="0px" y="0px"
	 viewBox="0 0 64 64" style="enable-background:new 0 0 64 64;" xml:space="preserve">
<g>
	<g>
		<rect x="14.9" y="11.1" width="34.1" height="22.3"/>
		<path d="M48.1,12.1v20.3H15.9V12.1H48.1 M50.1,10.1H13.9v24.3h36.1L50.1,10.1L50.1,10.1z"/>
	</g>
	<g>
		<polygon points="1,2.1 11.1,10.6 11.1,34 1,42.4 		"/>
		<path d="M2,4.3l8.1,6.8v22.4L2,40.3V4.3 M0,0v44.6l12.1-10.1V10.1L0,0L0,0z"/>
	</g>
	<g>
		<polygon points="52.9,34 52.9,10.6 63,2.1 63,42.4 		"/>
		<path d="M62,4.3v36l-8.1-6.8V11.1L62,4.3 M64,0L51.9,10.1v24.3L64,44.6V0L64,0z"/>
	</g>
	<g>
		<g>
			<path d="M53.1,52c-2.6,0-4.7-2.1-4.7-4.7s2.1-4.7,4.7-4.7c2.6,0,4.7,2.1,4.7,4.7S55.7,52,53.1,52z"/>
			<path d="M53.1,43.6c2,0,3.7,1.7,3.7,3.7S55.2,51,53.1,51s-3.7-1.7-3.7-3.7S51.1,43.6,53.1,43.6 M53.1,41.6
				c-3.1,0-5.7,2.5-5.7,5.7S50,53,53.1,53c3.1,0,5.7-2.5,5.7-5.7S56.3,41.6,53.1,41.6L53.1,41.6z"/>
		</g>
		<g>
			<g>
				<path d="M45,63c0-0.1,0-0.3,0-0.4c0-4.5,3.7-8.2,8.2-8.2c4.5,0,8.2,3.7,8.2,8.2c0,0.1,0,0.3,0,0.4H45z"/>
				<path d="M53.1,55.4c3.8,0,6.8,2.9,7.2,6.6H46C46.3,58.3,49.4,55.4,53.1,55.4 M53.1,53.4c-5.1,0-9.2,4.1-9.2,9.2
					c0,0.5,0,0.9,0.1,1.4h18.1c0.1-0.5,0.1-0.9,0.1-1.4C62.3,57.5,58.2,53.4,53.1,53.4L53.1,53.4z"/>
			</g>
		</g>
	</g>
	<g>
		<g>
			<path d="M32,52c-2.6,0-4.7-2.1-4.7-4.7s2.1-4.7,4.7-4.7s4.7,2.1,4.7,4.7S34.6,52,32,52z"/>
			<path d="M32,43.6c2,0,3.7,1.7,3.7,3.7S34,51,32,51s-3.7-1.7-3.7-3.7S30,43.6,32,43.6 M32,41.6c-3.1,0-5.7,2.5-5.7,5.7
				S28.9,53,32,53s5.7-2.5,5.7-5.7S35.1,41.6,32,41.6L32,41.6z"/>
		</g>
		<g>
			<path d="M23.8,63c0-0.1,0-0.3,0-0.4c0-4.5,3.7-8.2,8.2-8.2s8.2,3.7,8.2,8.2c0,0.1,0,0.3,0,0.4H23.8z"/>
			<path d="M32,55.4c3.8,0,6.8,2.9,7.2,6.6H24.8C25.2,58.3,28.2,55.4,32,55.4 M32,53.4c-5.1,0-9.2,4.1-9.2,9.2c0,0.5,0,0.9,0.1,1.4
				h18.1c0.1-0.5,0.1-0.9,0.1-1.4C41.2,57.5,37.1,53.4,32,53.4L32,53.4z"/>
		</g>
	</g>
	<g>
		<g>
			<path d="M10.9,52c-2.6,0-4.7-2.1-4.7-4.7s2.1-4.7,4.7-4.7c2.6,0,4.7,2.1,4.7,4.7S13.4,52,10.9,52z"/>
			<path d="M10.9,43.6c2,0,3.7,1.7,3.7,3.7S12.9,51,10.9,51s-3.7-1.7-3.7-3.7S8.8,43.6,10.9,43.6 M10.9,41.6c-3.1,0-5.7,2.5-5.7,5.7
				S7.7,53,10.9,53c3.1,0,5.7-2.5,5.7-5.7S14,41.6,10.9,41.6L10.9,41.6z"/>
		</g>
		<g>
			<path d="M2.7,63c0-0.1,0-0.3,0-0.4c0-4.5,3.7-8.2,8.2-8.2c4.5,0,8.2,3.7,8.2,8.2c0,0.1,0,0.3,0,0.4H2.7z"/>
			<path d="M10.9,55.4c3.8,0,6.8,2.9,7.2,6.6H3.7C4,58.3,7.1,55.4,10.9,55.4 M10.9,53.4c-5.1,0-9.2,4.1-9.2,9.2c0,0.5,0,0.9,0.1,1.4
				h18.1c0.1-0.5,0.1-0.9,0.1-1.4C20,57.5,15.9,53.4,10.9,53.4L10.9,53.4z"/>
		</g>
	</g>
</g>
</svg>
