<?xml version="1.0" encoding="utf-8"?>
<!-- Generator: Adobe Illustrator 22.0.1, SVG Export Plug-In . SVG Version: 6.00 Build 0)  -->
<svg version="1.1" id="Layer_1" xmlns="http://www.w3.org/2000/svg" xmlns:xlink="http://www.w3.org/1999/xlink" x="0px" y="0px"
	 viewBox="0 0 100 100" style="enable-background:new 0 0 100 100;" xml:space="preserve">
<path d="M92.4,7.6C90.7,6,88.5,5,86,5c-5.5,0-6.6,3.9-15.5,3.9c-8.5,0-9.3-2.2-13.6-2.2c-4.4,0-6.8,2.6-6.8,2.6s-2.5-2.6-6.8-2.6
	s-5.1,2.2-13.6,2.2C20.6,8.9,19.5,5,14,5c-2.5,0-4.7,1-6.4,2.6C6,9.3,5,11.5,5,14c0,5.5,3.9,6.6,3.9,15.5c0,8.5-2.2,9.3-2.2,13.7
	S9.3,50,9.3,50s-2.6,2.5-2.6,6.8s2.2,5.1,2.2,13.6C8.9,79.4,5,80.5,5,86c0,2.5,1,4.7,2.6,6.4C9.3,94,11.5,95,14,95
	c5.5,0,6.6-3.9,15.5-3.9c8.5,0,9.3,2.2,13.6,2.2c4.4,0,6.8-2.6,6.8-2.6s2.5,2.6,6.8,2.6s5.1-2.2,13.6-2.2c8.9,0,10,3.9,15.5,3.9
	c2.5,0,4.7-1,6.4-2.6C94,90.7,95,88.5,95,86c0-5.5-3.9-6.6-3.9-15.5c0-8.5,2.2-9.3,2.2-13.6c0-4.4-2.6-6.8-2.6-6.8s2.6-2.5,2.6-6.8
	s-2.2-5.1-2.2-13.7c0-8.9,3.9-10,3.9-15.5C95,11.5,94,9.3,92.4,7.6z M78.1,78.1H21.9V21.9h56.2V78.1z"/>
</svg>
