<?xml version="1.0" encoding="utf-8"?>
<!-- Generator: Adobe Illustrator 22.0.1, SVG Export Plug-In . SVG Version: 6.00 Build 0)  -->
<svg version="1.1" id="Layer_1" xmlns="http://www.w3.org/2000/svg" xmlns:xlink="http://www.w3.org/1999/xlink" x="0px" y="0px"
	 viewBox="0 0 124 123" style="enable-background:new 0 0 124 123;" xml:space="preserve">
<g>
	<g>
		<path d="M28.5,28.2c0.9-0.1,1.7,0.2,2.5,0.8c1.1,0.9,1.8,2.5,1.9,4.2c0.2,3.1-1.2,5.8-3.3,6.7l8.3-1.8c-1.1-7.3-3-10.9-4.7-12.6
			c-1.8-1.8-3.5-1.9-4.3-1.8c-3.2,0.4-5.5,4.5-5.2,9.1c0.1,2.2,1,4.1,2.3,5.2c0.8,0.6,1.6,0.9,2.5,0.8c1.9-0.2,3.3-2.8,3.1-5.6
			c-0.1-1.3-0.6-2.5-1.4-3.2c-0.3-0.3-0.8-0.5-1.4-0.5c-1.1,0.1-1.9,1.6-2.4,3.3h-0.1C25.4,30.5,26.7,28.5,28.5,28.2z"/>
		<path d="M98.6,86.5c-0.7-0.7-1.5-1.1-2.4-1.1l-47,10.4c0,0,3,1.9,3.1,7.1c0,5.1-3.4,8.5-3.4,8.5l44.9-9.9c4-1.1,6.6-5,6.6-9.7
			C100.5,89.6,99.8,87.6,98.6,86.5z"/>
		<path d="M50.6,100.5c-1.2-4.3-4.1-4.1-4.1-4.1c-1.9,0.1-3.4,2.6-3.5,5.4c0,1.3,0.4,2.5,1.2,3.2c0.3,0.3,0.8,0.6,1.4,0.5
			c1.1-0.1,2-1.5,2.6-3.2h0.1c0.6,2.5-0.8,4.5-2.7,4.6c-0.9,0.1-1.7-0.3-2.4-0.9c-1-1-1.6-2.5-1.6-4.3c0-3.4,2-6.3,4.4-6.7
			c0.1,0,24.3-5.3,39-8.6c-0.2-3.9,0-8.7,0.9-14.9c0.3-1.7,0.5-3.4,0.7-5c4.7-34,1.1-47.2-3-52c-2-2.5-4.2-3-5.7-3L29.2,22.2
			c1.2,0,3,0.4,4.9,2.3c4.6,4.8,8.9,18.7,3,58.1c-2.5,16.7,0.2,23.6,2.8,26.5c2,2.2,4.2,2.4,5.1,2.3
			C50.8,110.7,51.3,102.9,50.6,100.5z M79,58.4l-29.2,6.5c0-0.5,0.1-1.1,0.1-1.6l29.3-6.5C79.2,57.3,79.1,57.9,79,58.4z M79.9,48.7
			l-29.5,6.5c0-0.5,0-1,0-1.6L80,47.1C79.9,47.6,79.9,48.2,79.9,48.7z M80.2,39.1l-29.8,6.6c0-0.5,0-1-0.1-1.5l29.9-6.7
			C80.2,38,80.2,38.5,80.2,39.1z M79.6,28.1c0.1,0.5,0.1,1,0.2,1.5l-30.3,6.7c-0.1-0.5-0.2-1-0.3-1.5L79.6,28.1z M48.9,73L78,66.6
			l0,0c-0.1,0.5-0.1,1.1-0.2,1.6l-29.1,6.4C48.8,74.1,48.9,73.5,48.9,73z M47.6,82.9l29.1-6.4c-0.1,0.6-0.1,1.1-0.1,1.6l-29.2,6.4
			C47.5,83.9,47.5,83.4,47.6,82.9z"/>
	</g>
</g>
</svg>
