<?xml version="1.0" encoding="utf-8"?>
<!-- Generator: Adobe Illustrator 22.0.1, SVG Export Plug-In . SVG Version: 6.00 Build 0)  -->
<svg version="1.1"
	 id="Layer_1" xmlns:cc="http://creativecommons.org/ns#" xmlns:dc="http://purl.org/dc/elements/1.1/" xmlns:inkscape="http://www.inkscape.org/namespaces/inkscape" xmlns:rdf="http://www.w3.org/1999/02/22-rdf-syntax-ns#" xmlns:sodipodi="http://sodipodi.sourceforge.net/DTD/sodipodi-0.dtd" xmlns:svg="http://www.w3.org/2000/svg"
	 xmlns="http://www.w3.org/2000/svg" xmlns:xlink="http://www.w3.org/1999/xlink" x="0px" y="0px" viewBox="0 0 236.3 439.7"
	 style="enable-background:new 0 0 236.3 439.7;" xml:space="preserve">
<g transform="translate(-224.367,-365.95987)">
	<path d="M341.8,366c-31.9,0-58.4,23-64,53.4c3.9-0.7,7.8-0.9,11.8-0.9c20.5,0,39,7.8,52.8,20.8c16.8-15.7,39.4-23.3,63.5-20.1
		C400.4,388.9,373.8,366,341.8,366L341.8,366z M373.5,384c4.2,0,7.5,3.3,7.5,7.4c0,4.2-3.3,7.6-7.5,7.6c-4.1,0-7.5-3.4-7.5-7.6
		C366,387.3,369.4,384,373.5,384z M289.6,431.3c-36,0-65.2,29.2-65.2,65.2c0,11.3,2.9,22.1,7.9,31.3h114.6c5-9.2,7.9-20,7.9-31.3
		C354.9,460.5,325.7,431.3,289.6,431.3z M395.4,431.3c-17.2,0-32.6,6.5-44.2,17.3c9.4,11.8,15.3,26.5,16.3,42.6
		c0.3,1.7,0.3,3.4,0.3,5.3c0,11.2-2.3,21.7-6.6,31.4h91.5c5-9.2,7.9-20.1,7.9-31.4c0-32-23.1-58.6-53.6-64.1
		C403.3,431.6,399.4,431.3,395.4,431.3L395.4,431.3z M313.4,450.2c4.1,0,7.5,3.4,7.5,7.5c0,4.2-3.4,7.5-7.5,7.5
		c-4.2,0-7.5-3.3-7.5-7.5C305.9,453.6,309.3,450.2,313.4,450.2z M421.2,450.2c4.2,0,7.5,3.4,7.5,7.5c0,4.2-3.3,7.5-7.5,7.5
		c-4.2,0-7.5-3.3-7.5-7.5C413.7,453.6,417,450.2,421.2,450.2z M246.6,542.4l78.2,250.7c5.1,16.7,28.8,16.7,34,0l78.2-250.7H246.6z"
		/>
</g>
</svg>
