<?xml version="1.0" encoding="utf-8"?>
<!-- Generator: Adobe Illustrator 22.0.1, SVG Export Plug-In . SVG Version: 6.00 Build 0)  -->
<svg version="1.1" id="Layer_1" xmlns="http://www.w3.org/2000/svg" xmlns:xlink="http://www.w3.org/1999/xlink" x="0px" y="0px"
	 viewBox="0 0 240 191" style="enable-background:new 0 0 240 191;" xml:space="preserve">
<path d="M212.6,89.5h-6.9v-6.8l0,0c3.3-2,5.4-5.5,5.4-9.5c0-6.2-5.3-11.2-11.8-11.2c-1,0-2,0.1-3,0.4c-0.3,0.1-0.6,0-0.8-0.3
	c-2.8-3.9-7.5-6.3-12.4-6.3c-6.4,0-12.2,3.9-14.3,9.7c-0.1,0.4-0.5,0.6-0.8,0.5c-0.5-0.1-0.9-0.1-1.4-0.1c-5.4,0-9.7,4.2-9.7,9.3
	c0,3.6,2.2,6.8,5.4,8.3v49.9l-3.1,3.7c-1,1.2-1.2,2.8-0.5,4.3c0.6,1.2,1.7,2,2.9,2h44.9c1.3,0,2.3-0.7,2.9-2
	c0.7-1.4,0.4-3.1-0.5-4.2l-3.1-3.7v-12.6h6.9c4.3,0,7.8-3.5,7.8-7.8V97.3C220.5,93,217,89.5,212.6,89.5z M205.8,97.2h6.3
	c0.5,0,0.9,0.4,0.9,0.9v14c0,0.5-0.4,0.9-0.9,0.9h-6.3V97.2z M159.1,75.1c0-3.9,3.4-7,7.5-7c0.4,0,0.7,0,1.1,0.1
	c1.4,0.2,2.7-0.6,3.2-2c1.8-4.9,6.7-8.2,12.2-8.2c4.3,0,8.3,2,10.7,5.3c0.7,1,1.9,1.4,3.2,1.1c0.8-0.2,1.6-0.3,2.5-0.3
	c5.3,0,9.6,4.1,9.6,9c0,4-2.7,7.4-6.7,8.6c-0.1,0-0.2,0.1-0.3,0.1s-0.2,0-0.3,0.1h-0.2h-0.1c-2.3,0-4.2,1.9-4.2,4.2v1.3v1.3v7.5
	c0,1.1-0.9,2-2,2s-2-0.9-2-2V87v-0.9v-1.8c0-2.3-1.9-4.2-4.2-4.2c-2.2,0-3.9,1.6-4.2,3.7l0,0v0.4V87v1.3c0,1.1-0.9,2-2,2s-2-0.9-2-2
	V85v-0.2l0,0c-0.1-1.5-1.4-2.6-2.9-2.6h-11.3h-0.1h-0.1c-0.6,0-1.3-0.1-1.9-0.2C161.5,81.2,159.1,78.4,159.1,75.1z"/>
<g>
	<path d="M117.4,74.6c0-0.3,0-0.4,0-0.7c0-8.3-3.8-15.9-10-20.7c0-0.3,0-0.4,0-0.7c0-14-10.5-25.5-23.6-25.5S60.3,38.4,60.3,52.5
		c0,0.3,0,0.4,0,0.7c-6.2,4.8-9.8,12.5-9.8,20.7c0,0.3,0,0.4,0,0.7c-6.2,4.8-9.8,12.5-9.8,20.7c0,14,10.5,25.5,23.6,25.5h39.5
		c12.9,0,23.6-11.4,23.6-25.5C127.3,87.1,123.6,79.4,117.4,74.6z"/>
	<path d="M84,164.6c-2,0-3.8-1.9-3.8-4.1v-43.9c0-2.3,1.6-4.1,3.8-4.1c2.2,0,3.8,1.9,3.8,4.1v43.9C87.8,162.7,86,164.6,84,164.6z"/>
	<path d="M219.9,164.6H26.1c-3.3,0-6.1-1.9-6.1-4.1c0-2.2,2.6-4.1,6.1-4.1H220c3.3,0,6.1,1.9,6.1,4.1
		C226,162.7,223.2,164.6,219.9,164.6z"/>
</g>
</svg>
