<?xml version="1.0" encoding="utf-8"?>
<!-- Generator: Adobe Illustrator 22.0.1, SVG Export Plug-In . SVG Version: 6.00 Build 0)  -->
<svg version="1.1" id="Layer_1" xmlns="http://www.w3.org/2000/svg" xmlns:xlink="http://www.w3.org/1999/xlink" x="0px" y="0px"
	 viewBox="0 0 100 100" style="enable-background:new 0 0 100 100;" xml:space="preserve">
<g>
	<path d="M71.5,7.2c-0.4-0.2-0.8-0.2-1.2,0c-0.4,0.2-10.8,6-13.8,18.4c-2.3,9.4,0.3,19.9,7.8,31.3c-0.5,3.7-3.7,27,2.1,33.8
		c1.2,1.4,2.6,2,4.3,2c0,0,0.2,0,0.3,0c0.7,0,1.2-0.6,1.2-1.2V8.2C72.1,7.8,71.9,7.4,71.5,7.2z"/>
	<path d="M49.6,30.4V12.7c0-1.4-1.1-2.5-2.5-2.5c-1.4,0-2.5,1.1-2.5,2.5v4.9v3.1v8.5v0.3c0,0.9-0.7,1.7-1.7,1.7
		c-0.9,0-1.7-0.7-1.7-1.7v-0.3v-8.5v-3.1v-5c0-1.4-1.1-2.5-2.5-2.5c-1.4,0-2.5,1.1-2.5,2.5v5v1v10.7v0.3c0,0.9-0.7,1.7-1.7,1.7
		S33,30.4,33,29.5v-0.3V18.5v-1v-5c0-1.4-1.1-2.5-2.5-2.5c-1.4,0-2.5,1.1-2.5,2.5v17.7c-0.2,3.3-0.4,13.7,6.6,17.4l-0.9,40.5
		c0,2.7,2.2,4.9,4.9,4.9s4.9-2.2,4.9-4.9l-0.7-40.5C49.8,43.8,49.8,33.9,49.6,30.4z"/>
</g>
</svg>
