<?xml version="1.0" encoding="utf-8"?>
<!-- Generator: Adobe Illustrator 22.0.1, SVG Export Plug-In . SVG Version: 6.00 Build 0)  -->
<svg version="1.1" id="Layer_1" xmlns="http://www.w3.org/2000/svg" xmlns:xlink="http://www.w3.org/1999/xlink" x="0px" y="0px"
	 viewBox="0 0 92 60.4" style="enable-background:new 0 0 92 60.4;" xml:space="preserve">
<path d="M47.1,51.9l-0.3,0.4c-2.7,3.4-6.2,6-10.4,7.3c-1.9,0.6-3.8,0.9-5.8,0.9h0c-5.4,0-10.7-2.1-15.3-5.6C9,50,3.9,42.7,1.4,34.3
	C0.5,31.2,0,28.4,0,25.8c0-0.9,0.1-1.7,0.2-2.5c0.4-3.2,1.6-5.9,3.5-8.2c3.7-4.5,9.6-7.3,16.5-9.4c4.4-1.3,8.7-2.2,12.7-2.2
	c0.6,0,1.2,0,1.9,0.1c2.8,0.2,5.4,0.9,7.8,2.4l0.5,0.3l-0.3,0.4c-0.3,0.4-0.6,0.9-0.9,1.4l-0.3,0.4L41,8.2c-0.9-0.5-1.8-0.9-2.8-1.3
	c-1.6-0.5-3.4-0.8-5.4-0.8c-3.6,0-7.6,0.8-11.9,2.1c-5,1.5-9.3,3.4-12.4,5.8c-3.1,2.5-5.1,5.4-5.6,9.5c-0.1,0.7-0.1,1.4-0.1,2.2
	c0,2.2,0.4,4.8,1.3,7.7c2.4,7.8,7.2,14.7,12.9,19.1c4.3,3.2,9,5.1,13.7,5.1c1.7,0,3.4-0.2,5-0.7c3.7-1.1,6.8-3.4,9.2-6.5l0.4-0.5
	l0.4,0.4c0.4,0.4,0.8,0.8,1.2,1.2L47.1,51.9z M37.5,34.3c-0.3,0.2-0.5,0.5-0.7,0.9c0,0-2.1,4-6.1,5.2c-4,1.2-8-0.9-8-0.9
	c-1.7-0.9-3.2-0.1-3.4,1.8c0,0,0,0.4,0.6,2.3c1.8,6,8.1,9.3,14.1,7.5c3.4-1,5.9-3.5,7.1-6.5c-0.4-0.8-0.8-1.6-1.2-2.5
	C38.8,39.7,38,37.1,37.5,34.3z M23.6,28.5c0,0,0-0.2-0.3-1.5c-1.1-3.7-5-5.8-8.8-4.7c-3.7,1.1-5.8,5-4.7,8.8
	c0.4,1.2,0.5,1.4,0.5,1.4c0.8,0.9,1.8,0.8,2.4-0.2c0,0,1.3-2.5,3.8-3.3c2.5-0.8,5,0.6,5,0.6C22.5,30.2,23.5,29.7,23.6,28.5z
	 M37.9,16.4c-1.2-0.3-2.6-0.4-3.9,0c-3.7,1.1-5.8,5-4.7,8.8c0.4,1.2,0.5,1.4,0.5,1.4c0.8,0.9,1.8,0.8,2.4-0.2c0,0,1.3-2.5,3.8-3.3
	c0.3-0.1,0.6-0.1,0.9-0.2c0.2-2.1,0.5-4.2,0.9-6.3C37.8,16.6,37.8,16.5,37.9,16.4z M92,21.6c0,2.1-0.3,4.4-0.9,7
	c-2,8.5-6.5,16.2-12.4,21.4c-4.7,4.2-10.4,6.7-16.3,6.7c-1.5,0-2.9-0.2-4.4-0.5c-7.4-1.7-12.9-7.4-16-14.6c-1.9-4.6-3-9.8-3-15.2
	c0-3.1,0.3-6.3,1.1-9.4c1-4.3,2.4-7.6,4.4-10.2c1.9-2.6,4.4-4.3,7.1-5.4c2.5-1,5.2-1.4,8.1-1.4c3.4,0,7,0.6,10.8,1.4
	c5.2,1.2,10,2.8,13.7,5.3c3.7,2.5,6.4,6,7.4,10.8C91.9,18.8,92,20.2,92,21.6z M88.9,18.1c-0.5-2.7-1.7-4.8-3.4-6.6
	c-3.3-3.6-8.9-5.8-15.7-7.4l-0.1,0c-3.7-0.8-7.1-1.3-10.2-1.3c-1.2,0-2.3,0.1-3.4,0.2c-3.9,0.6-7.1,2.2-9.6,5.5
	c-1.7,2.2-3,5.2-3.9,9.2c-0.7,2.9-1,5.9-1,8.8c0,5.1,1,10,2.8,14.2c2.9,6.7,7.7,11.6,14.1,13c1.3,0.3,2.5,0.4,3.8,0.4
	c5.1,0,10.1-2.2,14.5-6.1c5.5-4.8,9.8-12,11.6-19.9c0.5-2.4,0.8-4.5,0.8-6.4C89.3,20.4,89.2,19.2,88.9,18.1z M60.9,43.7
	c4.1,0.9,6.5,4.8,6.5,4.8c1,1.6,2.7,1.7,3.8,0.1c0,0,0.2-0.3,0.7-2.3c1.4-6.1-2.4-12.1-8.5-13.5c-6.1-1.4-12.1,2.4-13.5,8.5
	c-0.5,2-0.4,2.4-0.4,2.4c0.3,1.9,1.9,2.6,3.5,1.5C53,45.2,56.8,42.8,60.9,43.7z M52.8,12.6c-0.6-1-1.7-1-2.4-0.1
	c0,0-0.1,0.2-0.4,1.4c-0.9,3.8,1.5,7.5,5.3,8.4c3.8,0.9,7.5-1.5,8.4-5.3c0.3-1.2,0.2-1.5,0.2-1.5c-0.2-1.2-1.2-1.6-2.2-1
	c0,0-2.4,1.5-4.9,0.9C54.3,15,52.8,12.6,52.8,12.6z M72.7,17.1c-0.6-1-1.7-1-2.4-0.1c0,0-0.1,0.2-0.4,1.4c-0.9,3.8,1.5,7.5,5.3,8.4
	c3.8,0.9,7.5-1.5,8.4-5.3c0.3-1.2,0.2-1.5,0.2-1.5c-0.2-1.2-1.2-1.6-2.2-1c0,0-2.4,1.5-4.9,0.9C74.1,19.5,72.7,17.1,72.7,17.1z"/>
</svg>
