<?xml version="1.0" encoding="utf-8"?>
<!-- Generator: Adobe Illustrator 22.0.1, SVG Export Plug-In . SVG Version: 6.00 Build 0)  -->
<svg version="1.1" id="Layer_1" xmlns="http://www.w3.org/2000/svg" xmlns:xlink="http://www.w3.org/1999/xlink" x="0px" y="0px"
	 viewBox="0 0 185.6 170" style="enable-background:new 0 0 185.6 170;" xml:space="preserve">
<g>
	<g>
		<g>
			<circle cx="32" cy="14" r="14"/>
		</g>
		<g>
			<path d="M49,32h-3H18h-3C6.8,32,0,38.8,0,47v1v2v42c0,3,2.5,5.5,5.5,5.5S11,95,11,92V50h3v112c0,4.4,3.6,8,8,8s8-3.6,8-8V98h4v64
				c0,4.4,3.6,8,8,8s8-3.6,8-8V50h3v42c0,3,2.5,5.5,5.5,5.5S64,95,64,92V50v-2v-1C64,38.8,57.2,32,49,32z"/>
		</g>
	</g>
	<g>
		<g>
			<circle cx="146.8" cy="14" r="14"/>
		</g>
		<g>
			<path d="M185.4,87.7l-11.8-44.5C171.8,36.6,165.8,32,159,32h-12.2h-12.2c-6.8,0-12.8,4.6-14.6,11.2l-11.8,44.5
				c-0.7,2.7,0.9,5.4,3.5,6.1c0.4,0.1,0.9,0.2,1.3,0.2c2.2,0,4.2-1.5,4.8-3.7L128.5,50h2.8l-17.5,66h17v47c0,3.9,3.1,7,7,7
				s7-3.1,7-7v-47h4v47c0,3.9,3.1,7,7,7s7-3.1,7-7v-47h17l-17.5-66h2.8l10.7,40.3c0.6,2.2,2.6,3.7,4.8,3.7c0.4,0,0.9-0.1,1.3-0.2
				C184.5,93.1,186.1,90.4,185.4,87.7z"/>
		</g>
	</g>
	<g>
		<rect x="86.6" width="3" height="170"/>
	</g>
</g>
</svg>
