<?xml version="1.0" encoding="utf-8"?>
<!-- Generator: Adobe Illustrator 22.0.1, SVG Export Plug-In . SVG Version: 6.00 Build 0)  -->
<svg version="1.1" id="Layer_1" xmlns="http://www.w3.org/2000/svg" xmlns:xlink="http://www.w3.org/1999/xlink" x="0px" y="0px"
	 viewBox="0 0 100 100" style="enable-background:new 0 0 100 100;" xml:space="preserve">
<path d="M74.8,35.4c0-0.2,0-0.3,0-0.5c0-5.7-2.8-11-7.4-14.3c0-0.2,0-0.3,0-0.5c0-9.7-7.8-17.6-17.5-17.6s-17.5,7.9-17.5,17.6
	c0,0.2,0,0.3,0,0.5c-4.6,3.3-7.3,8.6-7.3,14.3c0,0.2,0,0.3,0,0.5c-4.6,3.3-7.3,8.6-7.3,14.3c0,9.7,7.8,17.6,17.5,17.6h29.3
	c9.6,0,17.5-7.9,17.5-17.6C82.1,44,79.4,38.7,74.8,35.4z"/>
<path d="M50,97.5c-1.5,0-2.8-1.3-2.8-2.8V64.4c0-1.6,1.2-2.8,2.8-2.8s2.8,1.3,2.8,2.8v30.3C52.8,96.2,51.5,97.5,50,97.5z"/>
<path d="M94.7,97.5H5.3c-1.5,0-2.8-1.3-2.8-2.8s1.2-2.8,2.8-2.8h89.4c1.5,0,2.8,1.3,2.8,2.8C97.5,96.2,96.2,97.5,94.7,97.5z"/>
</svg>
