<?xml version="1.0" encoding="utf-8"?>
<!-- Generator: Adobe Illustrator 22.0.1, SVG Export Plug-In . SVG Version: 6.00 Build 0)  -->
<svg version="1.1" id="Layer_1" xmlns="http://www.w3.org/2000/svg" xmlns:xlink="http://www.w3.org/1999/xlink" x="0px" y="0px"
	 viewBox="0 0 73.4 100" style="enable-background:new 0 0 73.4 100;" xml:space="preserve">
<path d="M61.6,32.5H52V21.6c0.8-1.8,1-3.5,1-4.8c0-5.5-4.9-10.1-11.7-11c-0.4-0.1-1.4-0.9-2.2-1.5C36.6,2.5,33.4,0,29.1,0
	c-4.6,0-8,2.6-10.8,4.7c-1.6,1.2-3.3,2.5-4.4,2.5c-0.6,0-1.5-0.2-2.3-0.3c-1.1-0.2-2.2-0.4-3.4-0.4C6.9,6.5,5.9,6.7,5,7.2
	c-5,2.7-5,7.7-5,9.5c0,2,0.3,3.7,1,5.3v7v11C1,57,1,87.5,1,87.5C1,94.4,12.4,100,26.5,100C40.5,100,52,94.4,52,87.5c0,0,0-2.8,0-7.1
	h9.7c2.5,0,7.1-1.2,9.7-9.2c1.3-4,2.1-9.2,2.1-14.8C73.4,44.9,70.3,32.5,61.6,32.5z M5,35.7v-8.8c0.9,0.6,1.8,1.2,2.9,1.7
	c0.8,0.4,3.6,2.5,2.2,6.4l0,0.1c-0.4,1-0.7,2-0.9,3.1C7.6,37.4,6.2,36.6,5,35.7z M20.5,50.1c-0.5,0.1-1,0.2-1.4,0.2
	c-0.9,0-2.1-0.2-3-1.2c-1.1-1.1-1.6-2.9-1.5-5.4c0-1.3,0.2-2.5,0.4-3.7c0.2-1,0.5-1.9,0.8-2.8c0.1-0.1,0.1-0.2,0.1-0.3
	c2.4-6.8-1.8-12.2-5.5-13.8C6.7,21.4,6,19.5,6,16.8c0-2.5,0.5-3.5,1.8-4.3c0,0,0.1,0,0.4,0c0.6,0,1.4,0.1,2.3,0.3
	c1.1,0.2,2.3,0.4,3.4,0.4c3.1,0,5.6-1.9,8-3.7C24.2,7.7,26.5,6,29.1,6c2.3,0,4.4,1.6,6.3,3.1c1.6,1.2,3.1,2.4,4.9,2.6
	c3.9,0.5,6.7,2.7,6.7,5.1c0,3.5-2.8,6.1-8.3,7.7c-2.1,0.6-2.8,2.7-3.4,4.7c-0.2,0.6-0.5,1.7-0.8,2.3c-0.8-0.4-2.1-1.1-2.9-1.5
	c-3-1.7-4.2-2.3-5.4-2.4l-0.1,0l-0.2,0l-0.1,0c-0.7,0-1.4,0.3-1.9,0.7l-0.3,0.3c-0.4,0.4-0.6,0.9-0.7,1.4c-0.2,0.9,0,2,0.2,3.8
	c0.2,1.7,0.6,4.6,0.6,7.5C23.8,45.3,23.2,49.4,20.5,50.1z M46.6,36.6c-4,2.5-10,4.3-16.9,4.7c0-2-0.2-4-0.4-5.7
	c2.9,1.6,4.2,2.2,5.4,2.2c4,0,5.4-4.3,6.2-6.8c0.1-0.3,0.2-0.7,0.3-1.1c2.8-0.9,5-2.1,6.6-3.4v9.1C47.5,36,47.1,36.3,46.6,36.6z
	 M61.3,71.4H52c0-9.5,0-21.2,0-30h9.4c1.1,1,3.1,6.3,3.1,15C64.4,65.1,62.5,70.4,61.3,71.4z"/>
</svg>
