<?xml version="1.0" encoding="utf-8"?>
<!-- Generator: Adobe Illustrator 15.0.0, SVG Export Plug-In . SVG Version: 6.00 Build 0)  -->
<!DOCTYPE svg PUBLIC "-//W3C//DTD SVG 1.1//EN" "http://www.w3.org/Graphics/SVG/1.1/DTD/svg11.dtd">
<svg version="1.1" id="Ebene_1" xmlns="http://www.w3.org/2000/svg" xmlns:xlink="http://www.w3.org/1999/xlink" x="0px" y="0px"
	 width="792px" height="1224px" viewBox="0 0 792 1224" enable-background="new 0 0 792 1224" xml:space="preserve">
<path d="M261.879,554.63c0-4.417,3.581-8.007,8.007-8.007h9.014v-10.012H513.1v10.012h9.014c4.426,0,8.026,3.591,8.026,8.007
	c0,4.421-3.601,8.012-8.026,8.012v46.032h-10.002v-36.021c0-4.421-3.582-8.02-7.99-8.02c-4.422,0-8.021,3.599-8.021,8.02v36.021
	h-20.01v-36.021c0-4.421-3.599-8.02-8.021-8.02c-4.421,0-7.988,3.599-7.988,8.02v36.021h-20.042v-36.021
	c0-4.421-3.568-8.02-7.99-8.02s-8.021,3.599-8.021,8.02v36.021H404.02v-36.021c0-4.421-3.601-8.02-8.009-8.02
	c-4.421,0-8.007,3.599-8.007,8.02v36.021H367.98v-36.021c0-4.421-3.581-8.02-8.007-8.02c-4.426,0-8.007,3.599-8.007,8.02v36.021
	h-20.023v-36.021c0-4.421-3.582-8.02-8.008-8.02c-4.425,0-8.007,3.599-8.007,8.02v36.021h-20.023v-36.021
	c0-4.421-3.581-8.02-8.007-8.02c-4.417,0-8.007,3.599-8.007,8.02v36.021h-10.003v-46.032
	C265.46,562.643,261.879,559.052,261.879,554.63z M540.138,614.687H251.876c-4.421,0-8.007,3.599-8.007,8.008
	c0,4.426,3.582,8.007,8.007,8.007v72.509h8.008v-62.506c0-5.514,4.476-10.003,10.002-10.003c5.531,0,10.003,4.489,10.003,10.003
	v62.506h16.015v-62.506c0-5.514,4.489-10.003,10.021-10.003c5.522,0,10.002,4.489,10.002,10.003v62.506h16.01v-62.506
	c0-5.514,4.489-10.003,10.002-10.003c5.532,0,10.021,4.489,10.021,10.003v62.506h16.01v-62.506c0-5.514,4.477-10.003,10.021-10.003
	c5.513,0,10.002,4.489,10.002,10.003v62.506h16.009v-62.506c0-5.514,4.49-10.003,10.004-10.003c5.544,0,10.004,4.489,10.004,10.003
	v62.506h16.008v-62.506c0-5.514,4.49-10.003,10.022-10.003c5.531,0,10.021,4.489,10.021,10.003v62.506h16.011v-62.506
	c0-5.514,4.475-10.003,10.001-10.003c5.516,0,10.004,4.489,10.004,10.003v62.506h16.015v-62.506c0-5.514,4.489-10.003,10.002-10.003
	c5.546,0,10.003,4.489,10.003,10.003v62.506h8.025v-72.513c4.423,0,8.008-3.581,8.008-8.008
	C548.145,618.285,544.562,614.687,540.138,614.687z M287.896,519.419c0-5.721,4.646-10.344,10.349-10.344h0.741
	c4.358-36.798,28.318-67.395,60.884-80.642c-10.12,9.594-34.78,37.4-34.78,80.799c0,1.167,0.947,2.112,2.112,2.112
	c1.164,0,2.112-0.944,2.112-2.112c0-52.139,37.026-80.925,37.399-81.212c0.926-0.709,1.106-2.036,0.405-2.961
	c-0.53-0.683-1.362-0.8-2.147-0.621v-13.592h12.065c0-1.915,1.537-3.46,3.464-3.46v-39.661c-1.932,0-3.464-1.55-3.464-3.433
	c0-1.915,1.537-3.46,3.464-3.46h7.724v-43.094h4.323v-15.516c0.009-1.914,1.564-3.433,3.46-3.433c1.896,0,3.452,1.519,3.452,3.433
	v15.516h4.323v43.094h7.724c1.915,0,3.469,1.541,3.469,3.46c0,1.883-1.55,3.433-3.469,3.433v39.661c1.915,0,3.469,1.541,3.469,3.46
	h12.065v15.493h-0.477c35.392,11.885,61.841,43.871,66.46,82.735h0.728c5.712,0,10.366,4.623,10.366,10.344
	s-4.654,10.349-10.366,10.349H298.245C292.542,529.768,287.896,525.14,287.896,519.419z M392.83,400.767
	c0,1.748,1.42,3.168,3.168,3.168c1.752,0,3.168-1.42,3.168-3.168v-21.128c0-1.748-1.419-3.168-3.168-3.168
	c-1.748,0-3.168,1.42-3.168,3.168V400.767z M375.799,509.233c0,1.167,0.948,2.112,2.112,2.112s2.112-0.944,2.112-2.112
	c0-53.065,4.359-82.287,4.399-82.579c0.176-1.15-0.62-2.233-1.766-2.404c-1.339-0.188-2.238,0.621-2.408,1.771
	C380.208,426.313,375.799,455.809,375.799,509.233z M350.447,509.233c0,1.167,0.948,2.112,2.112,2.112
	c1.163,0,2.112-0.944,2.112-2.112c0-52.467,20.71-81.361,20.917-81.644c0.692-0.939,0.486-2.261-0.454-2.957
	c-0.917-0.683-2.251-0.486-2.948,0.454C371.297,426.295,350.447,455.278,350.447,509.233z"/>
<path fill="#C7A23A" d="M396,255.6c-131.274,0-237.6,106.326-237.6,237.6c0,18.176,2.02,35.877,5.821,52.747
	c0.594,2.376,1.188,4.752,1.782,7.009c1.188,4.396,2.376,8.673,3.801,12.949c1.663,5.108,3.445,10.099,5.346,15.088
	c1.782,4.396,3.801,8.91,5.821,13.187c0.119,0.476,0.356,0.832,0.594,1.307c1.901,3.921,3.802,7.841,5.94,11.643l5.346,9.267
	L396,968.4l203.148-352.005l5.346-9.267c2.139-3.801,4.039-7.722,5.939-11.643c0.238-0.475,0.476-0.831,0.595-1.307
	c2.02-4.276,4.039-8.791,5.821-13.187c1.9-4.989,3.683-9.979,5.346-15.088c1.426-4.276,2.613-8.554,3.802-12.949
	c0.594-2.257,1.188-4.633,1.663-7.009c3.92-16.87,5.939-34.571,5.939-52.747C633.6,361.926,527.274,255.6,396,255.6z M396,691.2
	c-109.352,0-198-88.648-198-198s88.648-198,198-198s198,88.648,198,198S505.352,691.2,396,691.2z"/>
<circle display="none" cx="396" cy="492.728" r="199.127"/>
</svg>
