<?xml version="1.0" encoding="utf-8"?>
<!-- Generator: Adobe Illustrator 19.1.0, SVG Export Plug-In . SVG Version: 6.00 Build 0)  -->
<!DOCTYPE svg PUBLIC "-//W3C//DTD SVG 1.1//EN" "http://www.w3.org/Graphics/SVG/1.1/DTD/svg11.dtd">
<svg version="1.1" id="Ebene_1" xmlns="http://www.w3.org/2000/svg" xmlns:xlink="http://www.w3.org/1999/xlink" x="0px" y="0px"
	 viewBox="72 -102.7 600 800" style="enable-background:new 72 -102.7 600 800;" xml:space="preserve">
<style type="text/css">
	.st0{fill:#C7A23A;}
	.st1{opacity:0.7;fill:#FFFFFF;enable-background:new    ;}
</style>
<path class="st0" d="M372.2-59.1c-131.3,0-237.6,106.3-237.6,237.6c0,18.2,2,35.9,5.8,52.7c0.6,2.4,1.2,4.8,1.8,7
	c1.2,4.4,2.4,8.7,3.8,12.9c1.7,5.1,3.4,10.1,5.3,15.1c1.8,4.4,3.8,8.9,5.8,13.2c0.1,0.5,0.4,0.8,0.6,1.3c1.9,3.9,3.8,7.8,5.9,11.6
	l5.3,9.3l203.1,352l203.1-352l5.3-9.3c2.1-3.8,4-7.7,5.9-11.6c0.2-0.5,0.5-0.8,0.6-1.3c2-4.3,4-8.8,5.8-13.2c1.9-5,3.7-10,5.3-15.1
	c1.4-4.3,2.6-8.6,3.8-12.9c0.6-2.3,1.2-4.6,1.7-7c3.9-16.9,5.9-34.6,5.9-52.7C609.8,47.2,503.5-59.1,372.2-59.1z M372.2,376.5
	c-109.4,0-198-88.6-198-198s88.6-198,198-198s198,88.6,198,198S481.6,376.5,372.2,376.5z"/>
<circle class="st1" cx="372.2" cy="178" r="199.1"/>
<path d="M506.2,174.2c0-1.5-0.7-2.9-1.8-3.6c0.1-0.2,0.1-0.5,0.1-0.9c0-1.5-1.1-2.7-2.6-2.7v-1.9h-0.1c0.7-9.4-7.6-37.5-7.6-37.5
	c-3.9-16.4,3.4-42.4,3.4-42.4c4.8-11.1,0.7-13.7,0.7-13.7l-0.2-0.2c0.8-0.6,1.3-1.7,1.3-2.9c0-0.5-0.1-1.1-0.3-1.5
	c0.8-0.8,1.3-1.9,1.3-3.2c0-1.9-1.2-3.7-3-4.3c-1.7-0.6-3.4,0-4.4,1.2c-0.4-0.2-0.9-0.3-1.4-0.3c-1,0-1.9,0.5-2.6,1.3
	c-3.3-5.4-15.4,0.6-15.6,0.3c-18.7,6.6-40.8,1.9-40.8,1.6c-21.3-4.8-47.7-5-52.7-5c0,0,0,0,0,0c0.1-3.9-3.7-6.8-7.4-5
	c-1.8,0.9-2.9,2.8-2.9,4.9v0.1c-16.9-1.4-52.9,5.7-52.6,5.4c-21.8,4.7-41.5-1-41.5-1c-10.9-4.8-14.8-2.4-16-1.3
	c-0.6-0.5-1.3-0.9-2.1-0.9c-0.5,0-1,0.1-1.4,0.3c-0.8-0.8-1.8-1.4-3-1.4c-1.8,0-3.6,1.2-4.1,3.1c-0.5,1.8,0,3.6,1.1,4.6
	c-0.2,0.4-0.3,1-0.3,1.5c0,0.9,0.3,1.7,0.8,2.3c-4.1,4.4,0.7,14.7,0.4,14.3c8.5,21,3.1,39,3.1,39c-5.4,22.6-6.2,41.6-6.2,41.6h0.1v1
	h-0.1c-0.9,0-1.7,0.5-2.1,1.3c-0.7,1.3-0.3,1.6-0.3,2.2c-1.1,0.9-1.8,2.1-1.8,3.6c0,1.5,0.7,2.9,1.8,3.6c-0.1,0.2-0.1,0.5-0.1,0.7
	c0,1.5,1.1,2.7,2.6,2.7h0.1v1h-0.1c0,0,0.8,19,6.2,41.6c0,0,5.4,18-3.1,39c0.3-0.3-4.5,10-0.4,14.3c-0.5,0.6-0.8,1.4-0.8,2.3
	c0,0.5,0.1,1,0.3,1.5c-0.8,0.8-1.3,1.9-1.3,3.2c0,1.9,1.2,3.7,3,4.3c1.7,0.6,3.4,0,4.4-1.2c0.4,0.2,0.9,0.3,1.4,0.3
	c0.8,0,1.5-0.3,2.1-0.9c1.1,1.2,5,3.5,16-1.3c0,0,19.7-5.6,41.5-1c-0.3-0.3,35.7,6.7,52.6,5.4c0,0,0,0,0,0c-0.1,3.1,2.3,5.5,5.1,5.5
	c2.8,0,5.2-2.4,5.1-5.5c0,0,0,0,0,0c5,0,31.4-0.2,52.7-5c0-0.3,22.1-5,40.8,1.6c0.3-0.3,12.4,5.8,15.6,0.3c0.6,0.7,1.5,1.3,2.6,1.3
	c0.5,0,0.9-0.1,1.4-0.3c0.8,0.8,1.8,1.4,3,1.4c1.8,0,3.6-1.2,4.1-3.1c0.5-1.8,0-3.6-1.1-4.6c0.2-0.4,0.3-1,0.3-1.5
	c0-1.2-0.5-2.2-1.3-2.9l0.2-0.2c0,0,4.1-2.8-0.7-13.7c0,0-7.3-26-3.4-42.4c0,0,8.4-28.5,7.5-37.7h0.1v-1.7c1.4,0,2.6-1.2,2.6-2.7
	c0-0.3-0.1-0.5-0.1-0.9C505.5,177,506.2,175.6,506.2,174.2z M448.5,112v125.1v0.5H301.1v-0.5V112v-0.5h147.3
	C448.5,111.4,448.5,112,448.5,112z"/>
</svg>
