<svg xmlns="http://www.w3.org/2000/svg" xmlns:xlink="http://www.w3.org/1999/xlink" version="1.1" x="0px" y="0px" viewBox="0 0 100 100" style="enable-background:new 0 0 100 100;" xml:space="preserve"><path d="M27.7,47.7c1.7,0,3-1.3,3-3s-1.3-3-3-3s-3,1.3-3,3S26.1,47.7,27.7,47.7z M27.7,46.7c-1,0-1.8-0.7-2-1.6  h0.7c0.2,0.6,0.7,1,1.3,1s1.2-0.4,1.3-1h0.7C29.5,46,28.7,46.7,27.7,46.7z M27.7,42.7c0.9,0,1.6,0.6,1.9,1.4h-3.8  C26.1,43.3,26.8,42.7,27.7,42.7z"></path><path d="M62.6,22.9c-5.1-5.1-5.8-8.7-5.5-10.8c0.2-1-0.2-2-0.9-2.8c-0.7-0.7-1.8-1.1-2.8-0.9  c-13.7,2-20.2,13.9-21.2,15.7c-3.6,2.3-6.8,5.4-9.1,9.1c-3.5,5.6-4.8,12-3.2,16.2c2.1,5.6,1,8,0.4,8.8c-0.8,1.1-1,2.4-0.7,3.5  c0.3,0.8,1.2,2.7,4.5,2c1.4-0.3,2.9-1.7,4.8-3.5c4.3-4.1,10.3-9.6,19.6-7.5c-0.2,1.2-0.8,2.4-1.9,3.4c-0.6,0.6-0.9,1.5-0.6,2.3  c0.3,0.8,0.9,1.4,1.8,1.5c0.7,0.1,1.4,0.1,2.2,0.1c2.3,0,5.2-0.5,7.9-2.2c3.2,3.9,2.5,8.7,1.2,12.4c0,0,0,0,0,0  c-0.4-0.2-8.6-5.2-13.7-0.2l-2.1,2.1c-0.4,0.4-0.6,1-0.4,1.6c0.2,0.6,0.7,1,1.3,1.1c1.2,0.2,3,0.7,5.1,2.4c2.2,1.7,3.9,2.1,5,2.1  c0,0,0,0,0.1,0c0,1.1,0.4,2.8,2.1,5.1c1.6,2.1,2.2,4,2.4,5.1c0.1,0.6,0.5,1.1,1.1,1.3c0.2,0.1,0.3,0.1,0.5,0.1  c0.4,0,0.8-0.2,1.1-0.5l2.1-2.1c5.1-5.1,0.1-13.4-0.1-13.7l-0.1-0.1c0,0-0.1-0.1-0.1-0.1c5.6-2.9,14.2-9.1,16-21.3  c1.3-8.4-1.5-16.9-7.6-23.4C69.1,26.8,66,24.5,62.6,22.9z M53.6,10.3c0.4-0.1,0.8,0.1,1.1,0.4c0.2,0.2,0.4,0.5,0.3,1  c-0.3,2.1,0.1,5.3,3.3,9.4c-4.1-1.3-8.6-1.9-13-1.5c-3.4,0.3-6.7,1.2-9.7,2.5C38.4,18.3,44.3,11.7,53.6,10.3z M39.8,50.8  c2.4-1.5,5.2-2.7,8.1-3.2c0.2,0.7,0.6,1.8,0.7,3C45.3,49.9,42.4,50.1,39.8,50.8z M48,57.9c0,0-0.1,0-0.1-0.1c0-0.1,0-0.2,0.1-0.2  c3.3-3.1,3-7.4,2.1-10.1c1.6,0,3.3,0.2,4.9,0.8c2.1,0.8,4,2.1,5.4,3.8c0.1,0.1,0.2,0.3,0.3,0.4C56.8,57.7,51.7,58.3,48,57.9z   M59.5,56.6c0.8-0.7,1.5-1.5,2.2-2.4c1.6,3.1,1.8,6.7,0.4,10.8C62.3,62.1,61.6,59.2,59.5,56.6z M61.9,75.3L61.9,75.3  c0.1,0.2,4.6,7.5,0.5,11.6l-1.9,1.9c-0.3-1.4-1-3.3-2.6-5.5c-2.4-3.2-1.6-4.7-1.6-4.7c0,0,0,0,0,0c0,0,0-0.1,0.1-0.1  c0-0.1,0.1-0.1,0.1-0.2c0,0,0,0,0,0c0.1-0.3-0.1-0.7-0.3-0.9c-0.3-0.2-0.7-0.2-1,0c0,0,0,0,0,0c0,0-1.5,0.8-4.7-1.6  c-2.2-1.7-4.2-2.4-5.5-2.6l1.9-1.9c4.1-4.1,11.5,0.4,11.5,0.4c0.1,0.1,0.2,0.1,0.3,0.2c-0.2,0.4-0.3,0.7-0.5,1  c-0.4,0.7-0.2,1.6,0.3,2.2c0.4,0.4,0.9,0.6,1.4,0.6c0.2,0,0.5,0,0.7-0.1c0.4-0.1,0.8-0.3,1.2-0.5C61.8,75.2,61.8,75.2,61.9,75.3z   M77.4,52.7c-2,13.5-13,19.2-17.5,21.1c0.1-0.3,0.3-0.6,0.4-0.9c0.9-1.2,8.7-11.8,2.4-21c0,0,0,0,0,0c-0.2-0.4-0.5-0.7-0.8-1.1  c-1.7-2-3.8-3.6-6.3-4.5c-2.2-0.8-4.6-1.1-7-0.8c-0.1,0-0.1,0-0.2,0c-3.3,0.4-6.7,1.7-10.2,3.9c-4.3,2.8-7.1,6-7.5,6.4  c-1.2,1-2.2,2-3.2,2.9c-1.5,1.5-3,2.8-3.9,3c-1.8,0.4-2-0.3-2.1-0.6c-0.2-0.6,0-1.2,0.4-1.8c1-1.3,2.2-4.4-0.2-10.7  c-1.4-3.6-0.2-9.3,3-14.4c4.6-7.3,12.2-11.9,20.9-12.6c9.3-0.8,18.5,2.7,24.8,9.3C76,37,78.5,44.9,77.4,52.7z"></path><g><path d="M74.9,55c0,0-0.1,0-0.1,0c-0.3-0.1-0.4-0.4-0.3-0.6c1.7-5.8,1.8-14.5-7.9-23.1   c-3.7-3.3-7.7-5.3-12.1-6.1c-0.3,0-0.5-0.3-0.4-0.6c0-0.3,0.3-0.5,0.6-0.4c4.5,0.8,8.8,3,12.6,6.4c10.1,9,10,18.1,8.2,24.2   C75.3,54.9,75.1,55,74.9,55z"></path><path d="M71.7,61.7c-0.1,0-0.2,0-0.3-0.1c-0.2-0.2-0.3-0.5-0.1-0.7c0.4-0.6,0.8-1.2,1.1-1.8   c0.1-0.2,0.4-0.3,0.7-0.2c0.2,0.1,0.3,0.4,0.2,0.7c-0.4,0.7-0.8,1.3-1.2,1.9C72,61.6,71.8,61.7,71.7,61.7z"></path></g></svg>