<svg xmlns="http://www.w3.org/2000/svg" xmlns:xlink="http://www.w3.org/1999/xlink" version="1.1" x="0px" y="0px" viewBox="0 0 512 512" style="enable-background:new 0 0 512 512;" xml:space="preserve"><g><path d="M468.93,200.442c-0.764-1.527-2.163-2.63-3.804-3.026c-1.669-0.424-3.394-0.071-4.765,0.933l-34.729,25.113   c-4.539,3.252-10.662,3.295-15.569-0.24c-0.347-0.249-0.669-0.465-1.015-0.713c-0.213-20.703-10.138-40.113-26.686-52.045   c-39.325-28.352-89.452-43.963-141.136-43.963c-53.776,0-105.431,16.742-145.434,47.144   c-15.788,11.985-25.022,30.749-25.333,50.723c-4.082,2.527-8.653,4.196-13.425,4.566l-7.494,0.566   c-3.917,0.566-7.367,2.644-9.686,5.868c-2.319,3.21-3.21,7.127-2.517,11.044c0.382,2.093,1.23,4.101,3.224,6.703l2.46,2.25   l-4.723,2.049c-2.856,0.707-5.19,2.842-6.109,5.699c-1.018,3.21-0.057,6.731,2.361,8.88l26.527,24.703   c1.322,1.154,2.848,2.004,4.438,2.669c1.298,0.891,6.774,4.503,15.812,9.514c3.806,16.362,13.628,30.831,27.601,39.868   c37.062,23.968,82.269,36.751,129.046,36.751c6.49,0,13.009-0.255,19.528-0.749c51.542-3.903,100.341-23.247,137.403-54.483   c14.928-12.582,23.326-31.751,22.756-51.036c4.048-1.079,8.452-0.288,11.803,2.676l28.168,24.859   c1.301,1.16,3.068,1.683,4.765,1.372c1.711-0.269,3.21-1.301,4.072-2.814c8.866-15.286,13.745-34.715,13.745-54.709   C480.214,232.428,476.311,215.078,468.93,200.442z M102.806,182.866c37.995-28.875,87.162-44.769,138.421-44.769   c49.279,0,96.989,14.833,134.362,41.757c11.119,8.024,18.337,20.246,20.772,33.745c-16.46-11.375-31.165-20.806-41.417-27.156   c-10.832-6.703-19.486-11.284-28.055-14.833c-78.366-32.551-160.451-20.249-231.097,34.63c-4.081,3.173-8.58,6.492-12.898,9.605   C85.235,202.79,92.173,190.935,102.806,182.866z M387.438,321.414c-35.21,29.667-81.675,48.063-130.813,51.796   c-51.118,3.818-101.33-8.272-141.418-34.192c-8.416-5.449-14.938-13.37-19.128-22.489c30.259,14.738,80.231,33.419,139.492,33.419   c32.749-0.014,68.312-5.727,104.865-20.97c26.283-10.97,46.816-26.075,65.045-41.344   C403.757,300.73,397.504,312.926,387.438,321.414z M459.738,293.175l-22.611-19.952c-7.347-6.463-17.613-7.549-26.2-3.699   c-1.36,0.161-2.523,0.869-3.374,1.977c-0.879,0.579-1.881,0.876-2.695,1.58c-19.16,16.544-40.781,33.47-68.892,45.207   c-110.057,45.943-210.745,1.639-248.477-19.192c11.116-2.225,20.278-6.907,27.108-14.292c15.229-16.502,13.391-39.494,13.306-40.47   c-0.283-3.182-3.04-5.501-6.264-5.26c-3.182,0.283-5.543,3.083-5.274,6.264c0.014,0.184,1.414,19.005-10.351,31.675   c-7.438,8.018-18.764,12.076-33.697,12.076c-1.23-0.014-2.658-0.269-3.479-0.99l-22.936-21.352l6.484-2.813l7.359,6.73   c3.281,4.695,8.682,7.509,14.437,7.509c3.196,0,5.798-2.602,5.798-5.798s-2.602-5.798-5.798-5.798c-1.98,0-3.832-0.947-5.769-3.493   l-19.683-18.722c-0.184-1.061,0.24-1.838,0.509-2.22c0.269-0.368,0.891-1.032,1.555-1.145l7.098-0.523   c7.367-0.551,14.466-3.083,20.56-7.311c6.717-4.666,16.389-11.524,24.435-17.775c68.213-52.956,144.105-64.396,219.559-33.089   c7.975,3.309,16.12,7.622,26.386,13.985c12.882,7.989,32.792,20.772,54.808,36.581c8.612,6.208,20.164,6.194,28.776-0.014   l28.988-20.97c4.737,11.638,7.212,24.887,7.212,38.731C468.619,265.898,465.494,280.746,459.738,293.175z"></path><path d="M148.408,219.673c-2.984,1.117-4.511,4.454-3.408,7.452c0.806,2.163,19.174,53.437-25.085,72.837   c-2.941,1.287-4.27,4.695-2.984,7.622c0.947,2.178,3.068,3.479,5.303,3.479c0.778,0,1.57-0.156,2.319-0.495   c43.496-19.047,39.494-65.555,31.307-87.487C154.729,220.097,151.449,218.584,148.408,219.673z"></path><path d="M89.714,242.046c-5.419,0-9.812,4.393-9.812,9.813c0,5.418,4.392,9.812,9.812,9.812c5.419,0,9.812-4.393,9.812-9.812   C99.526,246.439,95.134,242.046,89.714,242.046z"></path><path d="M282.573,215.601c-34.63-4.61-101.217,23.374-104.045,24.576c-1.244,0.523-2.262,1.456-2.885,2.658l-1.499,2.856   c-4.638,8.965-4.921,19.754-0.764,28.945c0.806,2.093,5.897,14.056,19.613,22.738c12.005,7.579,21.621,10.026,27.574,10.733   c0.778,0.085,1.555,0.141,2.333,0.141c4.935,0,9.743-1.895,13.476-5.359l56.958-52.913c5.755-5.331,7.848-13.306,5.444-20.801   C296.416,221.794,290.209,216.591,282.573,215.601z M285.458,241.492l-56.972,52.914c-1.81,1.669-4.2,2.489-6.547,2.192   c-4.765-0.566-12.585-2.588-22.752-9.007c-11.227-7.098-14.975-17.039-15.017-17.152c-0.057-0.156-0.113-0.311-0.184-0.467   c-2.772-5.981-2.602-13.066,0.438-18.934l0.509-0.976c11.114-4.497,67.733-26.641,96.141-22.978   c3.182,0.41,5.684,2.517,6.674,5.614C288.781,235.921,287.918,239.201,285.458,241.492z"></path><path d="M219.082,260.836l-7.097-0.868l6.107-3.148c2.856-1.456,3.973-4.949,2.503-7.791c-1.471-2.87-5.006-3.959-7.791-2.503   l-22.851,11.765c-0.144,0.074-0.22,0.224-0.356,0.309c-0.486,0.302-0.891,0.673-1.271,1.101c-0.185,0.211-0.389,0.382-0.542,0.617   c-0.41,0.622-0.688,1.321-0.833,2.089c-0.017,0.086-0.083,0.151-0.095,0.239c-0.002,0.012,0.005,0.021,0.004,0.033   c-0.003,0.019-0.015,0.034-0.018,0.052c-0.105,0.873,0.023,1.707,0.281,2.491c0.067,0.206,0.2,0.369,0.29,0.567   c0.27,0.59,0.604,1.121,1.048,1.588c0.081,0.086,0.103,0.208,0.191,0.289l16.346,15.258c1.103,1.046,2.531,1.57,3.945,1.57   c1.541,0,3.097-0.622,4.228-1.852c2.192-2.333,2.064-5.996-0.283-8.173l-3.333-3.114l8.112,0.992   c0.24,0.028,0.481,0.042,0.721,0.042c2.885,0,5.373-2.163,5.741-5.091C224.512,264.117,222.25,261.232,219.082,260.836z"></path></g></svg>