<svg xmlns="http://www.w3.org/2000/svg" xmlns:xlink="http://www.w3.org/1999/xlink" version="1.1" x="0px" y="0px" viewBox="0 0 512 512" style="enable-background:new 0 0 512 512;" xml:space="preserve"><g><path d="M381.773,153.612c0.015-0.006,0.02-0.024,0.035-0.03c0.021-0.008,0.042-0.004,0.064-0.012   c31.974-12.775,70.286-40.208,73.087-75.422c0.17-2.15-0.877-4.23-2.702-5.376c-1.853-1.132-4.174-1.16-6.027-0.057   c-0.113,0.057-10.512,6.197-21.872,9.946c-1.217,0.354-4.216,0.707-5.801-0.41c-0.206-0.147-0.264-0.47-0.428-0.673   c29.4-9.788,29.841-27.967,29.841-28.853c0-2.221-1.287-4.258-3.296-5.221c-48.295-23.152-104.142-14.063-108.136-13.371   c-58.195,2.769-116.573,23.217-173.56,60.742c-11.818,0.052-78.658,3.613-105.429,78.53c-1.585,4.357,0.523,9.224,4.81,11.078   c1.075,0.467,2.235,0.693,3.381,0.693c1.938,0,3.891-0.637,5.532-1.896c4.96-3.853,14.165-9.093,24.666-6.513   C84.01,199.837,47.08,285.358,109.231,361.655c12.477,15.309,31.165,29.064,55.548,41.264c1.334,13.53,7.436,34.63,31.702,45.816   c0.764,0.354,2.844,0.806,3.693,0.806c2.999,0,5.744-1.514,7.357-4.032c1.627-2.518,1.839-5.659,0.566-8.404   c-1.791-3.853-4.473-10.564-5.843-18.311c12.989,4.671,26.944,9.067,42.118,13.104l5.786,1.486   c6.168,10.257,34.153,46.829,119.662,46.815c10.059,0,20.925-0.495,32.639-1.613c2.589-0.255,4.697-2.207,5.15-4.768   c0.453-2.575-0.877-5.136-3.226-6.239c-0.509-0.241-50.946-24.688-56.676-75.648c-2.15-19.227,8.984-38.737,33.106-58.02   c1.599-1.287,2.405-3.325,2.108-5.362c-0.283-2.023-1.641-3.749-3.537-4.527c-1.033-0.424-25.636-10.017-63.665,12.634   c-9.578,5.716-18.378,11.644-26.683,17.246c-10.965,7.385-21.321,14.36-31.168,19.17c-3.573,1.756-7.796,2.314-12.215,2.065   l7.546-22.65c0.75-2.235,0.042-4.711-1.754-6.253c-1.797-1.514-4.343-1.797-6.466-0.693c-23.565,12.479-41.54,2.182-46.317-1.119   c-3.642-9.64-4.415-21.37-2.24-35.086c9.478,2.179,19.082,13.8,22.426,18.705c1.089,1.613,2.9,2.547,4.796,2.547   c0.396,0,0.792-0.028,1.188-0.113c2.306-0.481,4.089-2.306,4.513-4.626c5.626-30.593-8.786-55.691-14.11-63.704   c4.976-7.279,10.832-14.354,17.802-21.31C263.498,210.458,321.871,176.22,381.773,153.612z M340.454,45.254   c10.074-1.427,55.072-6.438,94.811,10.697c-2.448,4.881-10.158,13.78-34.351,17.953c-3.155,0.552-5.263,3.551-4.725,6.706   c0.495,2.815,2.943,4.81,5.716,4.81c0.325,0,0.651-0.028,0.99-0.085c1.312-0.226,2.462-0.511,3.699-0.765   c1.398,3.592,3.501,5.919,5.384,7.23c6.579,4.556,14.799,2.249,15.831,1.924c4.754-1.57,9.267-3.452,13.087-5.221   c-8.387,22.949-35.467,42.815-61.961,53.71c-29.998-2.633-53.357-27.898-53.357-58.181   C325.578,69.623,330.921,55.982,340.454,45.254z M71.598,169.345c19.268-44.863,54.495-57.835,75.568-61.512   c-12.598,11.656-31.209,31.581-45.748,58.392C89.557,162.227,78.88,165.476,71.598,169.345z M177.546,408.994   c4.033,1.784,8.376,3.48,12.681,5.188c0.609,7.536,2.251,14.64,4.202,20.108C184.166,427.205,179.584,417.422,177.546,408.994z    M238.202,360.82l-4.154,12.462c-7.28-1.884-15.73-5.315-22.892-11.271C218.674,363.606,227.86,363.891,238.202,360.82z    M218.989,310.313c-5.266-5.169-12.306-10.472-20.23-12.267c2.249-8.662,5.428-16.88,9.646-24.776   C212.663,280.936,218.589,294.341,218.989,310.313z M186.15,301.347c-0.092,0.26-0.112,0.534-0.167,0.807   c-0.294,1.46-0.658,2.883-0.906,4.367c-2.864,17.141-1.68,31.891,3.471,44.067c0.007,0.013,0.016,0.027,0.023,0.04   c1.666,3.927,3.715,7.605,6.212,10.985c13.327,18.053,35.256,23.429,47.169,25.013c7.47,1.004,14.77-0.085,21.009-3.141   c10.554-5.164,21.236-12.365,32.54-19.977c8.149-5.489,16.765-11.29,26.159-16.892c18.449-10.993,32.837-13.454,41.991-13.454   c0.099,0,0.198,0,0.283,0c-20.712,19.411-30.05,39.571-27.744,60.071c4.301,38.27,29.88,62.689,47.183,75.068   c-100.35,4.4-123.849-41.863-124.076-42.316c-0.736-1.599-2.136-2.773-3.834-3.197l-8.107-2.094   c-63.594-16.907-107.042-39.232-129.127-66.367c-62.378-76.55-18.511-161.19-10.295-175.521c0.003-0.004,0.007-0.006,0.01-0.011   c0.02-0.042,0.042-0.079,0.063-0.12c0.569-0.99,0.982-1.677,1.14-1.931c0.043-0.07,0.042-0.151,0.082-0.222   c0.035-0.062,0.096-0.096,0.13-0.16c0.108-0.206,0.105-0.429,0.186-0.64c21.994-42.914,56.753-69.069,58.359-70.263   c51.664-34.297,104.4-54.08,156.925-58.917c-7.06,11.134-10.851,24.065-10.851,37.492c0,29.937,19.057,55.884,45.924,65.801   c-54.907,22.877-106.575,54.398-135.04,82.793C203.83,253.604,191.494,275.601,186.15,301.347z"></path><path d="M280.546,137.654l-8.46-4.938c-9.889-5.744-21.943-5.631-31.436,0.34c-10.498,6.607-23.499,21.42-25.848,54.483   c0,0.141-0.014,0.269-0.014,0.41v19.255c0,2.745,1.938,5.107,4.626,5.673c0.396,0.085,0.792,0.113,1.174,0.113   c2.278,0,4.386-1.344,5.32-3.494c0.127-0.297,13.087-29.668,35.539-30.29c8.673-0.226,15.959-2.631,21.674-7.13   c5.376-4.23,8.305-10.837,7.824-17.699C290.449,147.401,286.573,141.162,280.546,137.654z M275.962,162.964   c-3.721,2.929-8.715,4.499-14.827,4.669c-15.449,0.41-27.008,9.96-34.662,19.283c1.783-21.561,8.8-36.784,20.344-44.042   c2.957-1.868,6.324-2.787,9.719-2.787c3.325,0,6.678,0.877,9.72,2.646l8.46,4.938c2.745,1.599,4.442,4.329,4.669,7.512   C279.598,158.253,278.353,161.082,275.962,162.964z"></path><path d="M168.156,277.603c-2.872-2.391-6.579-3.41-10.356-2.801c-3.664,0.623-6.862,2.801-8.757,5.999   c-6.041,10.172-11.941,29.427-5.744,63.396c0.34,1.882,1.599,3.466,3.353,4.244c0.75,0.34,1.542,0.509,2.349,0.509   c1.061,0,2.122-0.297,3.056-0.877c11.007-6.805,19.397-14.204,24.957-21.986c10.314-14.417,7.583-34.733-6.197-46.249   L168.156,277.603z M167.59,319.353c-3.395,4.739-8.177,9.394-14.261,13.893c-3.325-26.258,1.952-40.264,5.673-46.532l-4.98-2.957   l6.678,2.731l2.66,2.235c0.014,0,0.014,0,0.014,0C172.542,296.377,174.395,309.832,167.59,319.353z"></path><path d="M370.78,83.482c8.361,0,15.166-6.805,15.166-15.166s-6.805-15.166-15.166-15.166c-8.361,0-15.181,6.805-15.181,15.166   S362.419,83.482,370.78,83.482z M370.78,64.75c1.967,0,3.565,1.599,3.565,3.565c-0.014,3.933-7.159,3.905-7.145,0   C367.201,66.349,368.799,64.75,370.78,64.75z"></path></g></svg>