<svg xmlns="http://www.w3.org/2000/svg" xmlns:xlink="http://www.w3.org/1999/xlink" version="1.1" x="0px" y="0px" viewBox="0 0 100 100" style="enable-background:new 0 0 100 100;" xml:space="preserve"><path d="M37.9,63.8c17.6,0,31.1-9,36.1-12.8c0.3-0.2,0.6-0.6,0.7-0.9c1.3,1.2,4.3,3.8,8.4,5.4  c0.4,0.2,0.9,0.3,1.3,0.3c1,0,2-0.4,2.7-1.3c1-1.2,1.1-2.8,0.3-4.1c-0.5-0.9-0.5-2,0-2.8l0.3-0.4c0.8-1.2,0.7-2.8-0.2-4  c-0.9-1.2-2.3-1.7-3.6-1.3c-5.2,1.3-8.1,4.2-9.3,5.6c-0.2-0.3-0.5-0.6-0.9-0.8C68,43.2,53.1,35.4,36.1,35.4c-10.3,0-16,5.1-20.1,8.8  c-1.5,1.4-2.9,2.6-4,3.1c-0.8,0.3-1.4,1-1.6,1.8c-0.3,0.9-0.1,1.8,0.4,2.6C13.9,56.2,21.6,63.8,37.9,63.8z M84.3,43.7  c0.9-0.2,1.4,0.4,1.5,0.6c0.3,0.4,0.5,1.1,0.1,1.7l-0.3,0.4c-0.9,1.5-0.9,3.4,0,4.9c0.5,0.9,0,1.6-0.1,1.8c-0.3,0.4-1,0.7-1.8,0.4  c-3.6-1.4-6.5-3.8-7.7-4.9C77.1,47.4,79.7,44.9,84.3,43.7z M42.7,61.5l0.2-1.9c0.4-3.4,0.6-6.8,0.6-10.2h29.2c0,0,0,0,0,0  C68.4,52.7,57.3,60.1,42.7,61.5z M72.8,48.4H43.5c0-3.5-0.3-7.1-0.8-10.6C56.4,39.4,67.9,45.4,72.8,48.4  C72.7,48.3,72.7,48.3,72.8,48.4z M12.3,49.6c0-0.1,0.2-0.4,0.5-0.6c1.4-0.6,2.9-1.9,4.5-3.4c3.9-3.5,9.3-8.3,18.8-8.3  c1.5,0,3,0.1,4.5,0.2c1.1,7.2,1.2,14.5,0.3,21.8l-0.3,2.3c-0.9,0.1-1.8,0.1-2.8,0.1c-15.3,0-22.5-7-25.4-11.2  C12.3,50.3,12.2,49.9,12.3,49.6z"></path><path d="M26.7,51.8c0,0.3,0.2,0.5,0.5,0.5c0,0,3.1-0.1,4.4-2.9l3.1,3.6c0.5,0.6,1.2,0.9,1.9,0.9  c0.2,0,0.4,0,0.7-0.1c0.9-0.3,1.6-1,1.8-2l0.6-3.1c0.2-1-0.2-2-1-2.5c-0.8-0.6-1.9-0.6-2.7-0.1l-4,2.3c0.2-0.6,0.3-1.3,0.3-2.2  c0-0.3-0.2-0.5-0.5-0.5s-0.5,0.2-0.5,0.5c0,5-3.9,5.1-4.1,5.1C26.9,51.3,26.7,51.6,26.7,51.8z M36.5,47c0.5-0.3,1.1-0.3,1.6,0.1  c0.5,0.4,0.7,0.9,0.6,1.5l-0.6,3.1c-0.1,0.6-0.5,1-1.1,1.2c-0.6,0.2-1.1,0-1.5-0.5l-2.8-3.2L36.5,47z"></path><path d="M26.2,49.9c2,0,3.6-1.6,3.6-3.6s-1.6-3.6-3.6-3.6s-3.6,1.6-3.6,3.6S24.2,49.9,26.2,49.9z M26.2,43.7  c1.4,0,2.6,1.1,2.6,2.6s-1.1,2.6-2.6,2.6s-2.6-1.1-2.6-2.6S24.8,43.7,26.2,43.7z"></path><circle cx="26.2" cy="46.3" r="1.8"></circle></svg>