<?xml version="1.0" encoding="utf-8"?>
<!-- Generator: Adobe Illustrator 22.0.1, SVG Export Plug-In . SVG Version: 6.00 Build 0)  -->
<svg version="1.1" id="Layer_1" xmlns="http://www.w3.org/2000/svg" xmlns:xlink="http://www.w3.org/1999/xlink" x="0px" y="0px"
	 viewBox="0 0 100 100" style="enable-background:new 0 0 100 100;" xml:space="preserve">
<path d="M20.2,61.9c0-1,0.8-1.8,1.8-1.8h2v-2.2h52.1v2.2h2c1,0,1.8,0.8,1.8,1.8c0,1-0.8,1.8-1.8,1.8V74h-2.2v-8c0-1-0.8-1.8-1.8-1.8
	c-1,0-1.8,0.8-1.8,1.8v8h-4.5v-8c0-1-0.8-1.8-1.8-1.8s-1.8,0.8-1.8,1.8v8h-4.5v-8c0-1-0.8-1.8-1.8-1.8s-1.8,0.8-1.8,1.8v8h-4.5v-8
	c0-1-0.8-1.8-1.8-1.8c-1,0-1.8,0.8-1.8,1.8v8h-4.5v-8c0-1-0.8-1.8-1.8-1.8s-1.8,0.8-1.8,1.8v8h-4.5v-8c0-1-0.8-1.8-1.8-1.8
	s-1.8,0.8-1.8,1.8v8h-4.5v-8c0-1-0.8-1.8-1.8-1.8c-1,0-1.8,0.8-1.8,1.8v8h-2.2V63.7C20.9,63.7,20.2,62.9,20.2,61.9z M82.1,75.3H17.9
	c-1,0-1.8,0.8-1.8,1.8c0,1,0.8,1.8,1.8,1.8V95h1.8V81.1c0-1.2,1-2.2,2.2-2.2c1.2,0,2.2,1,2.2,2.2V95h3.6V81.1c0-1.2,1-2.2,2.2-2.2
	c1.2,0,2.2,1,2.2,2.2V95h3.6V81.1c0-1.2,1-2.2,2.2-2.2c1.2,0,2.2,1,2.2,2.2V95h3.6V81.1c0-1.2,1-2.2,2.2-2.2c1.2,0,2.2,1,2.2,2.2V95
	h3.6V81.1c0-1.2,1-2.2,2.2-2.2c1.2,0,2.2,1,2.2,2.2V95h3.6V81.1c0-1.2,1-2.2,2.2-2.2s2.2,1,2.2,2.2V95h3.6V81.1c0-1.2,1-2.2,2.2-2.2
	c1.2,0,2.2,1,2.2,2.2V95h3.6V81.1c0-1.2,1-2.2,2.2-2.2c1.2,0,2.2,1,2.2,2.2V95h1.8V78.9c1,0,1.8-0.8,1.8-1.8
	C83.9,76.1,83.1,75.3,82.1,75.3z M25.9,54.1c0-1.3,1-2.3,2.3-2.3h0.2c1-8.2,6.3-15,13.5-17.9c-2.3,2.1-7.7,8.3-7.7,18
	c0,0.3,0.2,0.5,0.5,0.5c0.3,0,0.5-0.2,0.5-0.5c0-11.6,8.2-18,8.3-18.1c0.2-0.2,0.2-0.5,0.1-0.7c-0.1-0.2-0.3-0.2-0.5-0.1v-3h2.7
	c0-0.4,0.3-0.8,0.8-0.8v-8.8c-0.4,0-0.8-0.3-0.8-0.8c0-0.4,0.3-0.8,0.8-0.8h1.7V9.2h1V5.8C49.2,5.3,49.6,5,50,5s0.8,0.3,0.8,0.8v3.5
	h1v9.6h1.7c0.4,0,0.8,0.3,0.8,0.8c0,0.4-0.3,0.8-0.8,0.8v8.8c0.4,0,0.8,0.3,0.8,0.8h2.7v3.4h-0.1c7.9,2.6,13.8,9.8,14.8,18.4h0.2
	c1.3,0,2.3,1,2.3,2.3c0,1.3-1,2.3-2.3,2.3H28.2C27,56.4,25.9,55.4,25.9,54.1z M49.3,27.7c0,0.4,0.3,0.7,0.7,0.7
	c0.4,0,0.7-0.3,0.7-0.7V23c0-0.4-0.3-0.7-0.7-0.7s-0.7,0.3-0.7,0.7V27.7z M45.5,51.8c0,0.3,0.2,0.5,0.5,0.5c0.3,0,0.5-0.2,0.5-0.5
	c0-11.8,1-18.3,1-18.4c0-0.3-0.1-0.5-0.4-0.5c-0.3,0-0.5,0.1-0.5,0.4C46.5,33.4,45.5,39.9,45.5,51.8z M39.9,51.8
	c0,0.3,0.2,0.5,0.5,0.5c0.3,0,0.5-0.2,0.5-0.5c0-11.7,4.6-18.1,4.7-18.2c0.2-0.2,0.1-0.5-0.1-0.7c-0.2-0.2-0.5-0.1-0.7,0.1
	C44.5,33.4,39.9,39.8,39.9,51.8z"/>
</svg>
