<?xml version="1.0" encoding="utf-8"?>
<!-- Generator: Adobe Illustrator 22.0.1, SVG Export Plug-In . SVG Version: 6.00 Build 0)  -->
<svg version="1.1" id="Layer_1" xmlns="http://www.w3.org/2000/svg" xmlns:xlink="http://www.w3.org/1999/xlink" x="0px" y="0px"
	 viewBox="0 0 100 100" style="enable-background:new 0 0 100 100;" xml:space="preserve">
<path d="M50,10.2l38.2,24.4H11.8L50,10.2z M29.2,38.3H18.4v34.9h10.8L29.2,38.3L29.2,38.3z M47.1,38.3H36.3v34.9h10.8L47.1,38.3
	L47.1,38.3z M82.8,38.3H72v34.9h10.8L82.8,38.3L82.8,38.3z M64.9,38.3H54.1v34.9h10.8L64.9,38.3L64.9,38.3z M88.2,76.7H11.8v4.7
	h76.4L88.2,76.7L88.2,76.7z M95,85.1H5v4.7h90V85.1z"/>
</svg>
