<?xml version="1.0" encoding="utf-8"?>
<!-- Generator: Adobe Illustrator 22.0.1, SVG Export Plug-In . SVG Version: 6.00 Build 0)  -->
<svg version="1.1" id="Layer_1" xmlns:sketch="http://www.bohemiancoding.com/sketch/ns"
	 xmlns="http://www.w3.org/2000/svg" xmlns:xlink="http://www.w3.org/1999/xlink" x="0px" y="0px" viewBox="0 0 44 52"
	 style="enable-background:new 0 0 44 52;" xml:space="preserve">
<title>leaf_leaves</title>
<description>Created with Sketch (http://www.bohemiancoding.com/sketch)</description>
<g sketch:type="MSPage">
	<path sketch:type="MSShapeGroup" d="M22.5,36.1c-0.6-4.3-1.1-9.2-1.4-14.1l0,0c4.4,3,8.5-5.3,6.2-9.9C24.9,7.4,21.7,0,21.7,0
		s-8.3,8.1-8.3,13.4c0,5.1,2.8,11.4,7,8.7c0.2,4.9,0.7,10,1.2,14.5l0,0c-1-0.3-2.8-1.2-5.5-3.2c5.2-1,2.3-9.8-2.6-11.4
		c-5-1.7-12.5-4.6-12.5-4.6S0.8,29.2,4.5,32.9c3.6,3.6,10,6.1,11.1,1.3c3.5,2.6,5.9,3.5,5.9,3.5l0.1-0.1c-0.1,0.2-0.2,0.3-0.2,0.3
		l0.3,0.4c1,7.6,2.1,13.2,2.1,13.2H25c0,0-1.2-5.8-2.3-13.8c0.5-1,1.5-2.6,3.5-4.8c0.5,5.3,9.5,3.1,11.6-1.6
		c2.1-4.9,5.6-12.1,5.6-12.1S31.8,18,27.7,21.4c-3.9,3.3-6.9,9.4-2.3,10.9C24.1,33.8,23.1,35.1,22.5,36.1z"/>
</g>
</svg>
