<?xml version="1.0" encoding="utf-8"?>
<!-- Generator: Adobe Illustrator 22.0.1, SVG Export Plug-In . SVG Version: 6.00 Build 0)  -->
<svg version="1.1" id="Layer_1" xmlns="http://www.w3.org/2000/svg" xmlns:xlink="http://www.w3.org/1999/xlink" x="0px" y="0px"
	 viewBox="0 0 100 100" style="enable-background:new 0 0 100 100;" xml:space="preserve">
<path d="M57.7,87.3c0,4.3-3.5,7.7-7.7,7.7c-4.3,0-7.7-3.5-7.7-7.7c0-4.3,3.5-7.7,7.7-7.7C54.3,79.6,57.7,83,57.7,87.3L57.7,87.3z"/>
<path d="M60.6,15.3c-0.2-2.2-1-4.3-2.3-6c-2-2.6-5-4.3-8.3-4.3c-3.2,0-6.1,1.6-8.1,4.1c-1.4,1.7-2.3,3.9-2.5,6.2
	c-0.1,0.6,0,1.3,0,1.9l4.4,50.3c0.1,1.5,0.8,2.9,1.8,3.9c1.1,1.1,2.7,1.8,4.4,1.8c1.5,0,3-0.6,4.1-1.5c1.2-1,2-2.5,2.2-4.2l4.4-50.3
	C60.7,16.5,60.7,15.9,60.6,15.3z"/>
</svg>
