<?xml version="1.0" encoding="utf-8"?>
<!-- Generator: Adobe Illustrator 22.0.1, SVG Export Plug-In . SVG Version: 6.00 Build 0)  -->
<svg version="1.1"
	 id="Layer_1" xmlns:cc="http://creativecommons.org/ns#" xmlns:dc="http://purl.org/dc/elements/1.1/" xmlns:inkscape="http://www.inkscape.org/namespaces/inkscape" xmlns:rdf="http://www.w3.org/1999/02/22-rdf-syntax-ns#" xmlns:sodipodi="http://sodipodi.sourceforge.net/DTD/sodipodi-0.dtd" xmlns:svg="http://www.w3.org/2000/svg"
	 xmlns="http://www.w3.org/2000/svg" xmlns:xlink="http://www.w3.org/1999/xlink" x="0px" y="0px" viewBox="0 0 100 100"
	 style="enable-background:new 0 0 100 100;" xml:space="preserve">
<g transform="translate(0,-952.36218)">
	<g transform="translate(14.992124,962.33623)">
		<path d="M3.8,0c-1,0.1-1.8,1-1.8,2v10H0v2h2v10c0,1.1,1,2,2,2s5.5,0.5,5.4-0.6L6,14.1l-0.8,0.7L7,24.1c-0.5,2.1,0.9,2,2,2s2-1,2-2
			v-10h5.5l7.7,22.4c0.2,5.8,1,10.9,1.9,16.7L6.5,73.1c-0.1,0.1-0.1,0.2-0.2,0.3c-0.7,2.1-0.1,3.5,1.2,5.2c1.7,1.4,3.6,1.8,5,1.1
			c0.1,0,0.2-0.1,0.3-0.2l22.5-20.9l13.5,3.7l-1.8,12.3c0,0,0,0.1,0,0.1c0.1,2.7,2.3,4.9,5,5c2.3-0.1,4.2-1.6,4.9-3.7
			c0-0.1,0-0.2,0-0.2c0.3-5.1,0.7-10.1,1-15.2c0.2-2.2-1-4-2.5-5c-3.8-1.9-7.5-3.9-11.3-5.8c0.8-3.8,1.5-8.4,1.8-13.3
			c2.6-7.5,5.1-15.1,7.7-22.6H59v10c0,1.1,1,2,2,2c0.4,0,4.1,0.2,5,0c1.8-0.5,1.8-2.3,1.2-4.1L63,14.1h0l1,10c0,1.1,1,2,2,2
			c1,0,2-1,2-2v-10h2v-2h-2v-10c0-1.1-1.8-2.3-2.9-2.1C64.1,0,64,1.1,64,2.1l-1.8,10H63l3.7-11.2c0-1.1-4.8-1-5.9-0.9
			c-1,0.1-1.8,1-1.8,2v10H11v-10c0-1.1-1.1-2.2-2.2-2 M24.5,14.1h21.2l-6.4,20h-8.5L24.5,14.1z M35,25c-2.2,0-4,1.8-4,4s1.8,4,4,4
			s4-1.8,4-4S37.2,25,35,25z"/>
	</g>
</g>
</svg>
